<svg width="203" height="78" viewBox="0 0 203 78" fill="none" xmlns="http://www.w3.org/2000/svg">
<path d="M187.41 51.7564C187.41 48.8606 189.761 46.5112 192.655 46.5112C195.551 46.5112 197.899 48.8606 197.899 51.7564C197.899 54.6522 195.551 57 192.655 57C189.761 57 187.41 54.6522 187.41 51.7564Z" fill="#122E2A"/>
<path d="M20.131 37.8655C20.131 34.5432 19.4891 32.0784 18.2051 30.4727C16.9195 28.8685 14.9722 28.0671 12.3542 28.0671H9.56928V48.3832H11.7C14.6079 48.3832 16.7389 47.5212 18.0957 45.791C19.451 44.0638 20.131 41.4215 20.131 37.8655ZM30.0628 37.5195C30.0628 43.5721 28.4358 48.236 25.1818 51.5097C21.9279 54.7849 17.3536 56.4225 11.4572 56.4225H0V20.1538H12.257C17.9423 20.1538 22.3315 21.6427 25.4246 24.6189C28.5162 27.5967 30.0628 31.8948 30.0628 37.5195Z" fill="#122E2A"/>
<path d="M61.7988 56.4221H70.9158V20.0016H61.7988V56.4221Z" fill="#122E2A"/>
<path d="M83.7268 42.8372C83.7268 45.1592 84.0303 46.9304 84.6359 48.1476C85.243 49.3663 86.2597 49.9749 87.6894 49.9749C89.1039 49.9749 90.1041 49.3663 90.6869 48.1476C91.2697 46.9304 91.5596 45.1592 91.5596 42.8372C91.5596 40.5272 91.2651 38.7848 90.6747 37.6086C90.0828 36.4294 89.0737 35.8389 87.6426 35.8389C86.2433 35.8389 85.243 36.4263 84.6359 37.595C84.0303 38.7651 83.7268 40.512 83.7268 42.8372ZM100.839 42.8372C100.839 47.2613 99.6793 50.7125 97.3541 53.1864C95.0306 55.6618 91.7782 56.9002 87.5969 56.9002C83.5871 56.9002 80.3953 55.6344 78.0262 53.1029C75.6541 50.5713 74.4688 47.1505 74.4688 42.8372C74.4688 38.4267 75.6299 34.9997 77.955 32.5562C80.28 30.1126 83.5401 28.8909 87.738 28.8909C90.3319 28.8909 92.6267 29.457 94.6149 30.5877C96.6045 31.7184 98.1405 33.3378 99.2196 35.4474C100.3 37.554 100.839 40.0188 100.839 42.8372Z" fill="#122E2A"/>
<path d="M104.457 56.4222H113.575V42.4835V29.369H104.457V56.4222Z" fill="#122E2A"/>
<path d="M104.457 26.0966H113.575V20H104.457V26.0966Z" fill="#122E2A"/>
<path d="M132.048 49.5219C133.279 49.5219 134.745 49.2093 136.455 48.5886V55.3954C135.226 55.9357 134.057 56.3228 132.946 56.5519C131.835 56.7842 130.532 56.8995 129.04 56.8995C125.979 56.8995 123.772 56.13 122.416 54.5941C121.067 53.0582 120.39 50.6997 120.39 47.5171V36.3649H117.197V29.3713H120.39V22.4627L129.579 20.8645V29.3713H135.396V36.3649H129.579V46.8948C129.579 48.6462 130.403 49.5219 132.048 49.5219Z" fill="#122E2A"/>
<path d="M153.153 49.5219C154.384 49.5219 155.85 49.2093 157.561 48.5886V55.3954C156.333 55.9357 155.162 56.3228 154.051 56.5519C152.939 56.7842 151.64 56.8995 150.145 56.8995C147.084 56.8995 144.877 56.13 143.525 54.5941C142.173 53.0582 141.496 50.6997 141.496 47.5171V36.3649H138.301V29.3713H141.496V22.358L150.682 20.8645V29.3713H156.503V36.3649H150.682V46.8948C150.682 48.6462 151.506 49.5219 153.153 49.5219Z" fill="#122E2A"/>
<path d="M169.066 39.5412C169.19 38.0599 169.614 36.9748 170.336 36.2812C171.062 35.5891 171.957 35.2431 173.029 35.2431C174.197 35.2431 175.126 35.6316 175.815 36.4147C176.509 37.1933 176.87 38.236 176.899 39.5412H169.066ZM181.924 32.0802C179.756 29.9554 176.682 28.8914 172.704 28.8914C168.522 28.8914 165.305 30.1132 163.05 32.5567C160.796 35.0002 159.668 38.5062 159.668 43.0745C159.668 47.4986 160.887 50.9104 163.318 53.3053C165.751 55.7002 169.167 56.8993 173.567 56.8993C175.68 56.8993 177.498 56.7551 179.022 56.4683C180.537 56.1844 182.003 55.6714 183.425 54.9308L182.024 48.8341C180.99 49.2561 180.007 49.5809 179.078 49.7949C177.736 50.106 176.264 50.2623 174.662 50.2623C172.904 50.2623 171.517 49.8328 170.5 48.9738C169.483 48.1132 168.941 46.9264 168.879 45.4148H185.176V41.2608C185.176 37.2647 184.092 34.2035 181.924 32.0802Z" fill="#122E2A"/>
<path d="M42.1633 39.5412C42.2877 38.0599 42.7112 36.9748 43.4335 36.2812C44.1575 35.5891 45.0546 35.2431 46.1277 35.2431C47.2933 35.2431 48.222 35.6316 48.9126 36.4147C49.6062 37.1933 49.9659 38.236 49.9978 39.5412H42.1633ZM55.0229 32.0802C52.8541 29.9554 49.7806 28.8914 45.8013 28.8914C41.6184 28.8914 38.4023 30.1132 36.1485 32.5567C33.8947 35.0002 32.7656 38.5062 32.7656 43.0745C32.7656 47.4986 33.9829 50.9104 36.4173 53.3053C38.8487 55.7002 42.2649 56.8993 46.6648 56.8993C48.7775 56.8993 50.5956 56.7551 52.1194 56.4683C53.6341 56.1844 55.1004 55.6714 56.524 54.9308L55.1216 48.8341C54.088 49.2561 53.1044 49.5809 52.1772 49.7949C50.8325 50.106 49.3618 50.2623 47.7589 50.2623C46.003 50.2623 44.6145 49.8328 43.5977 48.9738C42.5792 48.1132 42.039 46.9264 41.9768 45.4148H58.2738V41.2608C58.2738 37.2647 57.1902 34.2035 55.0229 32.0802Z" fill="#122E2A"/>
</svg>
