<svg width="203" height="78" viewBox="0 0 203 78" fill="none" xmlns="http://www.w3.org/2000/svg">
<path d="M187.41 31.7564C187.41 28.8606 189.761 26.5112 192.655 26.5112C195.551 26.5112 197.899 28.8606 197.899 31.7564C197.899 34.6522 195.551 37 192.655 37C189.761 37 187.41 34.6522 187.41 31.7564Z" fill="#122E2A"/>
<path d="M20.131 17.8655C20.131 14.5432 19.4891 12.0784 18.2051 10.4727C16.9195 8.86849 14.9722 8.06712 12.3542 8.06712H9.56928V28.3832H11.7C14.6079 28.3832 16.7389 27.5212 18.0957 25.791C19.451 24.0638 20.131 21.4215 20.131 17.8655ZM30.0628 17.5195C30.0628 23.5721 28.4358 28.236 25.1818 31.5097C21.9279 34.7849 17.3536 36.4225 11.4572 36.4225H0V0.153839H12.257C17.9423 0.153839 22.3315 1.6427 25.4246 4.61893C28.5162 7.59667 30.0628 11.8948 30.0628 17.5195Z" fill="#122E2A"/>
<path d="M61.7988 36.4221H70.9158V0.00164795H61.7988V36.4221Z" fill="#122E2A"/>
<path d="M83.7268 22.8372C83.7268 25.1592 84.0303 26.9304 84.6359 28.1476C85.243 29.3663 86.2597 29.9749 87.6894 29.9749C89.1039 29.9749 90.1041 29.3663 90.6869 28.1476C91.2697 26.9304 91.5596 25.1592 91.5596 22.8372C91.5596 20.5272 91.2651 18.7848 90.6747 17.6086C90.0828 16.4294 89.0737 15.8389 87.6426 15.8389C86.2433 15.8389 85.243 16.4263 84.6359 17.595C84.0303 18.7651 83.7268 20.512 83.7268 22.8372ZM100.839 22.8372C100.839 27.2613 99.6793 30.7125 97.3541 33.1864C95.0306 35.6618 91.7782 36.9002 87.5969 36.9002C83.5871 36.9002 80.3953 35.6344 78.0262 33.1029C75.6541 30.5713 74.4688 27.1505 74.4688 22.8372C74.4688 18.4267 75.6299 14.9997 77.955 12.5562C80.28 10.1126 83.5401 8.8909 87.738 8.8909C90.3319 8.8909 92.6267 9.45703 94.6149 10.5877C96.6045 11.7184 98.1405 13.3378 99.2196 15.4474C100.3 17.554 100.839 20.0188 100.839 22.8372Z" fill="#122E2A"/>
<path d="M104.457 36.4222H113.575V22.4835V9.36899H104.457V36.4222Z" fill="#122E2A"/>
<path d="M104.457 6.09663H113.575V0H104.457V6.09663Z" fill="#122E2A"/>
<path d="M132.048 29.5219C133.279 29.5219 134.745 29.2093 136.455 28.5886V35.3954C135.226 35.9357 134.057 36.3228 132.946 36.5519C131.835 36.7842 130.532 36.8995 129.04 36.8995C125.979 36.8995 123.772 36.13 122.416 34.5941C121.067 33.0582 120.39 30.6997 120.39 27.5171V16.3649H117.197V9.37131H120.39V2.46269L129.579 0.864502V9.37131H135.396V16.3649H129.579V26.8948C129.579 28.6462 130.403 29.5219 132.048 29.5219Z" fill="#122E2A"/>
<path d="M153.153 29.5219C154.384 29.5219 155.85 29.2093 157.561 28.5886V35.3954C156.333 35.9357 155.162 36.3228 154.051 36.5519C152.939 36.7842 151.64 36.8995 150.145 36.8995C147.084 36.8995 144.877 36.13 143.525 34.5941C142.173 33.0582 141.496 30.6997 141.496 27.5171V16.3649H138.301V9.37131H141.496V2.35798L150.682 0.864502V9.37131H156.503V16.3649H150.682V26.8948C150.682 28.6462 151.506 29.5219 153.153 29.5219Z" fill="#122E2A"/>
<path d="M169.066 19.5412C169.19 18.0599 169.614 16.9748 170.336 16.2812C171.062 15.5891 171.957 15.2431 173.029 15.2431C174.197 15.2431 175.126 15.6316 175.815 16.4147C176.509 17.1933 176.87 18.236 176.899 19.5412H169.066ZM181.924 12.0802C179.756 9.9554 176.682 8.89145 172.704 8.89145C168.522 8.89145 165.305 10.1132 163.05 12.5567C160.796 15.0002 159.668 18.5062 159.668 23.0745C159.668 27.4986 160.887 30.9104 163.318 33.3053C165.751 35.7002 169.167 36.8993 173.567 36.8993C175.68 36.8993 177.498 36.7551 179.022 36.4683C180.537 36.1844 182.003 35.6714 183.425 34.9308L182.024 28.8341C180.99 29.2561 180.007 29.5809 179.078 29.7949C177.736 30.106 176.264 30.2623 174.662 30.2623C172.904 30.2623 171.517 29.8328 170.5 28.9738C169.483 28.1132 168.941 26.9264 168.879 25.4148H185.176V21.2608C185.176 17.2647 184.092 14.2035 181.924 12.0802Z" fill="#122E2A"/>
<path d="M42.1633 19.5412C42.2877 18.0599 42.7112 16.9748 43.4335 16.2812C44.1575 15.5891 45.0546 15.2431 46.1277 15.2431C47.2933 15.2431 48.222 15.6316 48.9126 16.4147C49.6062 17.1933 49.9659 18.236 49.9978 19.5412H42.1633ZM55.0229 12.0802C52.8541 9.9554 49.7806 8.89145 45.8013 8.89145C41.6184 8.89145 38.4023 10.1132 36.1485 12.5567C33.8947 15.0002 32.7656 18.5062 32.7656 23.0745C32.7656 27.4986 33.9829 30.9104 36.4173 33.3053C38.8487 35.7002 42.2649 36.8993 46.6648 36.8993C48.7775 36.8993 50.5956 36.7551 52.1194 36.4683C53.6341 36.1844 55.1004 35.6714 56.524 34.9308L55.1216 28.8341C54.088 29.2561 53.1044 29.5809 52.1772 29.7949C50.8325 30.106 49.3618 30.2623 47.7589 30.2623C46.003 30.2623 44.6145 29.8328 43.5977 28.9738C42.5792 28.1132 42.039 26.9264 41.9768 25.4148H58.2738V21.2608C58.2738 17.2647 57.1902 14.2035 55.0229 12.0802Z" fill="#122E2A"/>
</svg>
