<svg width="133" height="25" viewBox="0 0 133 25" fill="none" xmlns="http://www.w3.org/2000/svg">
<g clip-path="url(#clip0_1983_5175)">
<path d="M125.594 21.6075C125.594 19.6671 127.169 18.0928 129.108 18.0928C131.049 18.0928 132.622 19.6671 132.622 21.6075C132.622 23.5479 131.049 25.1212 129.108 25.1212C127.169 25.1212 125.594 23.5479 125.594 21.6075Z" fill="#122E2A"/>
<path d="M13.5012 12.2999C13.5012 10.0737 13.071 8.42212 12.2107 7.34614C11.3492 6.27118 10.0443 5.7342 8.29008 5.7342H6.42393V19.3477H7.8517C9.80025 19.3477 11.2282 18.77 12.1374 17.6107C13.0455 16.4533 13.5012 14.6827 13.5012 12.2999ZM20.1563 12.0681C20.1563 16.1238 19.0661 19.249 16.8856 21.4427C14.7052 23.6373 11.6401 24.7347 7.68902 24.7347H0.0117188V0.431641H8.22492C12.0346 0.431641 14.9757 1.4293 17.0483 3.42362C19.12 5.41896 20.1563 8.29908 20.1563 12.0681Z" fill="#122E2A"/>
<path d="M41.4219 24.7338H47.531V0.329102H41.4219V24.7338Z" fill="#122E2A"/>
<path d="M56.1138 15.6313C56.1138 17.1873 56.3172 18.3741 56.723 19.1897C57.1298 20.0064 57.8111 20.4142 58.7691 20.4142C59.7169 20.4142 60.3871 20.0064 60.7777 19.1897C61.1682 18.3741 61.3624 17.1873 61.3624 15.6313C61.3624 14.0834 61.1651 12.9159 60.7695 12.1277C60.3729 11.3375 59.6967 10.9419 58.7377 10.9419C57.8001 10.9419 57.1298 11.3355 56.723 12.1186C56.3172 12.9027 56.1138 14.0733 56.1138 15.6313ZM67.5804 15.6313C67.5804 18.5958 66.8033 20.9085 65.2453 22.5661C63.6883 24.2249 61.5089 25.0547 58.7071 25.0547C56.0202 25.0547 53.8814 24.2065 52.2939 22.5102C50.7044 20.8138 49.9102 18.5216 49.9102 15.6313C49.9102 12.6759 50.6882 10.3795 52.2463 8.74216C53.8042 7.1048 55.9887 6.28613 58.8017 6.28613C60.5398 6.28613 62.0775 6.66549 63.4097 7.42315C64.743 8.18081 65.7722 9.26594 66.4953 10.6796C67.2194 12.0911 67.5804 13.7427 67.5804 15.6313Z" fill="#122E2A"/>
<path d="M70.0078 24.7343H76.1179V15.3943V6.60645H70.0078V24.7343Z" fill="#122E2A"/>
<path d="M70.0078 4.41337H76.1179V0.328125H70.0078V4.41337Z" fill="#122E2A"/>
<path d="M88.4942 20.1101C89.319 20.1101 90.3013 19.9006 91.4474 19.4847V24.0458C90.6237 24.4079 89.8407 24.6672 89.0962 24.8208C88.3518 24.9764 87.4781 25.0537 86.4785 25.0537C84.4272 25.0537 82.9485 24.5381 82.0403 23.5089C81.1362 22.4797 80.6826 20.8993 80.6826 18.7667V11.2938H78.543V6.6075H80.6826V1.97815L86.8396 0.907227V6.6075H90.7377V11.2938H86.8396V18.3497C86.8396 19.5233 87.3918 20.1101 88.4942 20.1101Z" fill="#122E2A"/>
<path d="M102.636 20.1101C103.461 20.1101 104.443 19.9006 105.589 19.4847V24.0458C104.767 24.4079 103.982 24.6672 103.238 24.8208C102.492 24.9764 101.622 25.0537 100.62 25.0537C98.5689 25.0537 97.0903 24.5381 96.1841 23.5089C95.278 22.4797 94.8244 20.8993 94.8244 18.7667V11.2938H92.6836V6.6075H94.8244V1.90798L100.98 0.907227V6.6075H104.88V11.2938H100.98V18.3497C100.98 19.5233 101.532 20.1101 102.636 20.1101Z" fill="#122E2A"/>
<path d="M113.297 13.4224C113.381 12.4298 113.665 11.7026 114.149 11.2379C114.635 10.7741 115.235 10.5423 115.953 10.5423C116.736 10.5423 117.358 10.8026 117.82 11.3273C118.285 11.8491 118.527 12.5477 118.546 13.4224H113.297ZM121.913 8.42286C120.461 6.99907 118.401 6.28613 115.735 6.28613C112.933 6.28613 110.777 7.1048 109.266 8.74216C107.756 10.3795 107 12.7288 107 15.7899C107 18.7545 107.817 21.0406 109.446 22.6455C111.076 24.2503 113.365 25.0537 116.314 25.0537C117.729 25.0537 118.948 24.9571 119.969 24.7649C120.984 24.5747 121.966 24.2309 122.919 23.7346L121.98 19.6494C121.288 19.9321 120.629 20.1498 120.006 20.2932C119.107 20.5016 118.121 20.6064 117.047 20.6064C115.869 20.6064 114.94 20.3186 114.258 19.743C113.577 19.1663 113.214 18.3711 113.172 17.3581H124.093V14.5746C124.093 11.8969 123.366 9.84563 121.913 8.42286Z" fill="#122E2A"/>
<path d="M28.266 13.4224C28.3493 12.4298 28.6331 11.7026 29.1171 11.2379C29.6022 10.7741 30.2034 10.5423 30.9225 10.5423C31.7035 10.5423 32.3258 10.8026 32.7886 11.3273C33.2533 11.8491 33.4944 12.5477 33.5158 13.4224H28.266ZM36.883 8.42286C35.4297 6.99907 33.3702 6.28613 30.7038 6.28613C27.9008 6.28613 25.7458 7.1048 24.2355 8.74216C22.7253 10.3795 21.9688 12.7288 21.9688 15.7899C21.9688 18.7545 22.7844 21.0406 24.4157 22.6455C26.0449 24.2503 28.3341 25.0537 31.2824 25.0537C32.698 25.0537 33.9163 24.9571 34.9374 24.7649C35.9523 24.5747 36.9349 24.2309 37.8888 23.7346L36.9491 19.6494C36.2565 19.9321 35.5975 20.1498 34.9761 20.2932C34.0751 20.5016 33.0895 20.6064 32.0155 20.6064C30.8389 20.6064 29.9085 20.3186 29.2271 19.743C28.5447 19.1663 28.1827 18.3711 28.141 17.3581H39.0614V14.5746C39.0614 11.8969 38.3352 9.84563 36.883 8.42286Z" fill="#122E2A"/>
</g>
<defs>
<clipPath id="clip0_1983_5175">
<rect width="132.635" height="25" fill="white"/>
</clipPath>
</defs>
</svg>
