<svg width="145" height="28" viewBox="0 0 145 28" fill="none" xmlns="http://www.w3.org/2000/svg">
<g clip-path="url(#clip0_1541_5499)">
<path d="M137.303 23.6219C137.303 21.5006 139.025 19.7795 141.145 19.7795C143.266 19.7795 144.986 21.5006 144.986 23.6219C144.986 25.7433 143.266 27.4632 141.145 27.4632C139.025 27.4632 137.303 25.7433 137.303 23.6219Z" fill="#0F2424"/>
<path d="M14.7627 13.4462C14.7627 11.0124 14.2924 9.20685 13.3518 8.03056C12.4101 6.85539 10.9836 6.26834 9.06575 6.26834H7.02564V21.151H8.58651C10.7167 21.151 12.2778 20.5195 13.2717 19.252C14.2645 17.9868 14.7627 16.0511 14.7627 13.4462ZM22.0383 13.1927C22.0383 17.6266 20.8464 21.0431 18.4627 23.4413C16.079 25.8405 12.7281 27.0402 8.40866 27.0402H0.015625V0.471436H8.99453C13.1593 0.471436 16.3747 1.56211 18.6405 3.74235C20.9053 5.92371 22.0383 9.07234 22.0383 13.1927Z" fill="#0F2424"/>
<path d="M45.2871 27.0399H51.9658V0.359985H45.2871V27.0399Z" fill="#0F2424"/>
<path d="M61.3484 17.0882C61.3484 18.7893 61.5708 20.0867 62.0144 20.9784C62.4591 21.8712 63.2039 22.317 64.2513 22.317C65.2875 22.317 66.0201 21.8712 66.4471 20.9784C66.874 20.0867 67.0864 18.7893 67.0864 17.0882C67.0864 15.396 66.8706 14.1197 66.4382 13.258C66.0046 12.3942 65.2653 11.9616 64.217 11.9616C63.1919 11.9616 62.4591 12.3919 62.0144 13.248C61.5708 14.1052 61.3484 15.3849 61.3484 17.0882ZM73.884 17.0882C73.884 20.3291 73.0345 22.8574 71.3312 24.6696C69.6291 26.4829 67.2465 27.3902 64.1835 27.3902C61.2461 27.3902 58.9079 26.4629 57.1724 24.6084C55.4347 22.7539 54.5664 20.248 54.5664 17.0882C54.5664 13.8573 55.417 11.3468 57.1203 9.55682C58.8235 7.76682 61.2116 6.87183 64.2869 6.87183C66.187 6.87183 67.8681 7.28655 69.3245 8.11484C70.7821 8.94314 71.9073 10.1294 72.6977 11.6748C73.4893 13.218 73.884 15.0236 73.884 17.0882Z" fill="#0F2424"/>
<path d="M76.5352 27.04H83.2149V16.8292V7.22205H76.5352V27.04Z" fill="#0F2424"/>
<path d="M76.5352 4.82487H83.2149V0.358765H76.5352V4.82487Z" fill="#0F2424"/>
<path d="M96.7481 21.9852C97.6498 21.9852 98.7237 21.7562 99.9767 21.3014V26.2878C99.0761 26.6836 98.2201 26.9672 97.4063 27.135C96.5924 27.3051 95.6373 27.3897 94.5445 27.3897C92.3019 27.3897 90.6854 26.826 89.6925 25.7008C88.7041 24.5757 88.2083 22.8479 88.2083 20.5165V12.347H85.8691V7.22376H88.2083V2.16283L94.9392 0.992065V7.22376H99.2008V12.347H94.9392V20.0606C94.9392 21.3437 95.5429 21.9852 96.7481 21.9852Z" fill="#0F2424"/>
<path d="M112.208 21.9852C113.11 21.9852 114.184 21.7562 115.437 21.3014V26.2878C114.538 26.6836 113.68 26.9672 112.866 27.135C112.051 27.3051 111.1 27.3897 110.005 27.3897C107.762 27.3897 106.146 26.826 105.155 25.7008C104.164 24.5757 103.669 22.8479 103.669 20.5165V12.347H101.328V7.22376H103.669V2.08612L110.398 0.992065V7.22376H114.662V12.347H110.398V20.0606C110.398 21.3437 111.002 21.9852 112.208 21.9852Z" fill="#0F2424"/>
<path d="M123.865 14.6738C123.956 13.5887 124.266 12.7938 124.795 12.2857C125.327 11.7787 125.983 11.5252 126.768 11.5252C127.624 11.5252 128.304 11.8098 128.809 12.3835C129.317 12.9539 129.582 13.7177 129.603 14.6738H123.865ZM133.284 9.20824C131.696 7.65172 129.444 6.87231 126.53 6.87231C123.467 6.87231 121.11 7.76731 119.458 9.55731C117.807 11.3473 116.98 13.9156 116.98 17.2621C116.98 20.5031 117.873 23.0024 119.654 24.7568C121.437 26.5112 123.939 27.3896 127.162 27.3896C128.71 27.3896 130.042 27.2839 131.158 27.0738C132.268 26.8659 133.342 26.4901 134.384 25.9475L133.357 21.4814C132.6 21.7905 131.88 22.0284 131.199 22.1852C130.217 22.4131 129.138 22.5276 127.964 22.5276C126.677 22.5276 125.66 22.213 124.916 21.5837C124.171 20.9533 123.774 20.0839 123.728 18.9765H135.667V15.9335C135.667 13.0061 134.873 10.7637 133.284 9.20824Z" fill="#0F2424"/>
<path d="M30.9019 14.6738C30.993 13.5887 31.3032 12.7938 31.8323 12.2857C32.3627 11.7787 33.0199 11.5252 33.806 11.5252C34.6599 11.5252 35.3402 11.8098 35.8461 12.3835C36.3542 12.9539 36.6177 13.7177 36.6411 14.6738H30.9019ZM40.3222 9.20824C38.7335 7.65172 36.482 6.87231 33.5669 6.87231C30.5027 6.87231 28.1468 7.76731 26.4957 9.55731C24.8447 11.3473 24.0176 13.9156 24.0176 17.2621C24.0176 20.5031 24.9093 23.0024 26.6926 24.7568C28.4737 26.5112 30.9763 27.3896 34.1995 27.3896C35.7471 27.3896 37.079 27.2839 38.1953 27.0738C39.3048 26.8659 40.379 26.4901 41.4219 25.9475L40.3945 21.4814C39.6374 21.7905 38.9169 22.0284 38.2376 22.1852C37.2525 22.4131 36.1751 22.5276 35.001 22.5276C33.7147 22.5276 32.6976 22.213 31.9526 21.5837C31.2066 20.9533 30.8108 20.0839 30.7653 18.9765H42.7037V15.9335C42.7037 13.0061 41.9099 10.7637 40.3222 9.20824Z" fill="#0F2424"/>
</g>
<defs>
<clipPath id="clip0_1541_5499">
<rect width="145" height="27.3307" fill="white"/>
</clipPath>
</defs>
</svg>
