<svg width="32" height="31" viewBox="0 0 32 31" fill="none" xmlns="http://www.w3.org/2000/svg">
<path d="M14.9116 14.3173C11.0286 15.5816 7.38859 17.276 3.86234 18.9089C2.5387 19.5231 1.27193 20.1118 0 20.6749V30.3597C0.718694 30.0986 1.41671 29.8171 2.09921 29.5304C4.00711 28.7216 5.88399 27.8463 7.69882 27.0017C11.1268 25.4098 14.3687 23.9048 17.7347 22.8043C23.2723 20.9973 28.0653 20.7568 31.9948 22.0825V12.8431C26.8761 11.7937 21.142 12.28 14.9116 14.3122V14.3173Z" fill="#0F2424"/>
<path d="M14.9116 2.00649C11.0286 3.27084 7.38859 4.96517 3.86234 6.59807C2.5387 7.21233 1.27193 7.801 0 8.36407V17.1736C1.27193 16.6105 2.5387 16.0218 3.86234 15.4076C7.38342 13.7695 11.0234 12.0803 14.9116 10.816C21.1472 8.78381 26.8761 8.29752 31.9948 9.34688V0.537389C26.8709 -0.51197 21.142 -0.0256818 14.9116 2.00649Z" fill="#0F2424"/>
<path d="M2.47665 3.68043C4.60688 2.6925 6.78365 1.68409 9.04314 0.747348V0H0V4.82705C0.853126 4.43802 1.70108 4.04387 2.47665 3.68555V3.68043Z" fill="#0F2424"/>
<path d="M31.9943 30.3645V25.4095L30.9706 25.0614C29.6469 24.6161 28.163 24.3857 26.555 24.3857C25.4227 24.3857 24.2179 24.4984 22.9512 24.7185V30.3594H31.9995L31.9943 30.3645Z" fill="#0F2424"/>
</svg>
