<svg width="1440" height="456" viewBox="0 0 1440 456" fill="none" xmlns="http://www.w3.org/2000/svg">
<g opacity="0.2" clip-path="url(#clip0_1261_5333)">
<path d="M1109.11 455.431L1108.6 454.919L998.278 344.586L887.433 455.431L886.92 454.919L776.588 344.586L666.269 454.919L665.244 453.894L776.588 342.537L777.1 343.049L887.433 453.382L998.278 342.537L998.79 343.049L1109.11 453.382L1219.95 342.537L1220.47 343.049L1331.3 453.894L1330.27 454.919L1219.95 344.586L1109.11 455.431Z" fill="#989A9A"/>
<path d="M887.433 344.586L886.921 344.074L776.588 233.755L666.269 344.074L665.244 343.049L776.588 231.692L777.1 232.204L887.433 342.537L998.278 231.692L998.79 232.204L1109.62 343.049L1108.6 344.074L998.278 233.755L887.433 344.586Z" fill="#989A9A"/>
<path d="M1330.27 344.074L1219.95 233.755L1165 288.712L1163.97 287.688L1219.95 231.692L1220.47 232.204L1331.3 343.049L1330.27 344.074Z" fill="#989A9A"/>
<path d="M887.433 233.755L886.92 233.243L776.588 122.91L666.269 233.243L665.244 232.218L776.588 120.861L777.1 121.373L887.433 231.706L942.336 176.789L943.361 177.813L887.433 233.755Z" fill="#989A9A"/>
<path d="M1109.11 233.755L1108.6 233.243L997.766 122.398L998.79 121.373L1109.11 231.706L1219.95 120.861L1220.47 121.373L1331.3 232.218L1330.27 233.243L1219.95 122.91L1109.11 233.755Z" fill="#989A9A"/>
<path d="M1109.11 122.91L1108.6 122.398L998.278 12.0785L887.433 122.91L886.92 122.398L776.588 12.0785L666.269 122.398L665.244 121.373L776.588 10.0156L777.1 10.528L887.433 120.861L998.278 10.0156L998.79 10.528L1109.11 120.861L1219.95 10.0156L1220.47 10.528L1331.3 121.373L1330.27 122.398L1219.95 12.0785L1109.11 122.91Z" fill="#989A9A"/>
<path d="M665.029 345.369V232.474L665.245 232.258L817.092 80.4382C826.544 70.9865 839.11 65.782 852.472 65.782H922.355C935.434 65.782 947.825 70.8112 957.222 79.9393L956.211 80.9775C948.674 73.6966 936.512 73.8044 929.11 81.2067L887.42 122.897L665.016 345.342L665.029 345.369ZM666.485 233.081V341.863L887.434 120.861L928.099 80.1955C933.627 74.6674 941.636 72.9281 948.715 74.991C940.921 69.9483 931.834 67.2382 922.368 67.2382H852.485C839.501 67.2382 827.299 72.2943 818.13 81.4629L666.499 233.067L666.485 233.081Z" fill="#989A9A"/>
<path d="M887.434 121.885L928.612 80.7078C936.365 72.955 948.877 72.8875 956.738 80.4651C947.542 71.5257 935.219 66.51 922.369 66.51H852.486C839.407 66.51 826.868 71.701 817.619 80.9505L665.771 232.771V343.602L887.448 121.872L887.434 121.885Z" fill="#989A9A"/>
<path d="M665.029 345.369V232.474L665.245 232.258L817.092 80.4382C826.544 70.9865 839.11 65.782 852.472 65.782H922.355C935.434 65.782 947.825 70.8112 957.222 79.9393L956.211 80.9775C948.674 73.6966 936.512 73.8044 929.11 81.2067L887.42 122.897L665.016 345.342L665.029 345.369ZM666.485 233.081V341.863L887.434 120.861L928.099 80.1955C933.627 74.6674 941.636 72.9281 948.715 74.991C940.921 69.9483 931.834 67.2382 922.368 67.2382H852.485C839.501 67.2382 827.299 72.2943 818.13 81.4629L666.499 233.067L666.485 233.081Z" fill="#989A9A"/>
<path d="M1330.79 232.811L1219.95 343.67L1178.78 384.847C1171.02 392.6 1158.51 392.667 1150.65 385.09C1159.85 394.029 1172.17 399.045 1185.02 399.045H1254.9C1267.98 399.045 1280.52 393.854 1289.77 384.605L1330.77 343.602V232.811H1330.79Z" fill="#989A9A"/>
<path d="M1254.9 399.759H1185.02C1171.93 399.759 1159.55 394.73 1150.15 385.602L1151.16 384.564C1158.7 391.845 1170.86 391.737 1178.26 384.335L1219.89 342.712L1331.51 231.058V343.899L1331.3 344.115L1290.3 385.117C1280.84 394.568 1268.28 399.773 1254.92 399.773L1254.9 399.759ZM1158.67 390.55C1166.47 395.593 1175.55 398.303 1185.02 398.303H1254.9C1267.89 398.303 1280.09 393.247 1289.26 384.079L1330.06 343.292V234.55L1220.02 344.613L1179.29 385.346C1173.76 390.874 1165.75 392.613 1158.67 390.55Z" fill="#989A9A"/>
<path d="M1254.9 399.759H1185.02C1171.65 399.759 1159.08 394.555 1149.63 385.103L887.434 122.91L665.029 345.368V232.474L665.245 232.258L817.092 80.4382C826.544 70.9865 839.11 65.782 852.472 65.782H922.355C935.73 65.782 948.297 70.9865 957.748 80.4382L1219.94 342.631L1331.5 231.045V343.885L1331.29 344.101L1290.28 385.103C1280.83 394.555 1268.27 399.759 1254.9 399.759ZM887.434 120.861L887.946 121.373L1150.65 384.079C1159.83 393.261 1172.04 398.317 1185.02 398.317H1254.9C1267.89 398.317 1280.09 393.261 1289.26 384.092L1330.06 343.306V234.564L1219.96 344.694L1219.44 344.182L956.737 81.4764C947.555 72.2943 935.353 67.2382 922.369 67.2382H852.485C839.501 67.2382 827.299 72.2943 818.13 81.4629L666.499 233.067V341.849L887.447 120.847L887.434 120.861Z" fill="#989A9A"/>
<path d="M444.08 455.431L443.568 454.919L333.235 344.586L222.404 455.431L221.891 454.919L111.559 344.586L1.23956 454.919L0.214844 453.894L111.559 342.537L112.071 343.049L222.404 453.382L333.235 342.537L333.747 343.049L444.08 453.382L554.911 342.537L555.424 343.049L666.269 453.894L665.244 454.919L554.911 344.586L444.08 455.431Z" fill="#989A9A"/>
<path d="M222.404 344.586L221.891 344.074L111.559 233.755L1.23956 344.074L0.214844 343.049L111.559 231.692L112.071 232.204L222.404 342.537L333.235 231.692L333.747 232.204L444.592 343.049L443.568 344.074L333.235 233.755L222.404 344.586Z" fill="#989A9A"/>
<path d="M665.244 344.074L554.912 233.755L499.954 288.712L498.93 287.688L554.912 231.692L555.424 232.204L666.269 343.049L665.244 344.074Z" fill="#989A9A"/>
<path d="M222.404 233.755L221.891 233.243L111.559 122.91L1.23956 233.243L0.214844 232.218L111.559 120.861L112.071 121.373L222.404 231.706L277.307 176.789L278.332 177.813L222.404 233.755Z" fill="#989A9A"/>
<path d="M444.08 233.755L443.568 233.243L332.723 122.398L333.747 121.373L444.08 231.706L554.911 120.861L555.424 121.373L666.269 232.218L665.244 233.243L554.911 122.91L444.08 233.755Z" fill="#989A9A"/>
<path d="M444.08 122.91L443.568 122.398L333.235 12.0785L222.404 122.91L221.891 122.398L111.559 12.0785L1.23956 122.398L0.214844 121.373L111.559 10.0156L112.071 10.528L222.404 120.861L333.235 10.0156L333.747 10.528L444.08 120.861L554.911 10.0156L555.424 10.528L666.269 121.373L665.244 122.398L554.911 12.0785L444.08 122.91Z" fill="#989A9A"/>
<path d="M0 345.369V232.474L0.21573 232.258L152.063 80.4382C161.515 70.9865 174.081 65.782 187.443 65.782H257.326C270.405 65.782 282.796 70.8112 292.193 79.9393L291.182 80.9775C283.645 73.6966 271.483 73.8044 264.081 81.2067L222.391 122.897L0 345.369ZM1.45618 233.081V341.863L222.404 120.861L263.07 80.1955C268.598 74.6674 276.593 72.9281 283.685 74.991C275.892 69.9483 266.805 67.2382 257.339 67.2382H187.456C174.472 67.2382 162.27 72.2943 153.101 81.4629L1.45618 233.081Z" fill="#989A9A"/>
<path d="M222.405 121.885L263.582 80.7078C271.335 72.955 283.848 72.8875 291.708 80.4651C282.513 71.5257 270.189 66.51 257.34 66.51H187.457C174.378 66.51 161.839 71.701 152.589 80.9505L0.728516 232.771V343.602L222.405 121.872V121.885Z" fill="#989A9A"/>
<path d="M0 345.369V232.474L0.21573 232.258L152.063 80.4382C161.515 70.9865 174.081 65.782 187.443 65.782H257.326C270.405 65.782 282.796 70.8112 292.193 79.9393L291.182 80.9775C283.645 73.6966 271.483 73.8044 264.081 81.2067L222.391 122.897L0 345.369ZM1.45618 233.081V341.863L222.404 120.861L263.07 80.1955C268.598 74.6674 276.593 72.9281 283.685 74.991C275.892 69.9483 266.805 67.2382 257.339 67.2382H187.456C174.472 67.2382 162.27 72.2943 153.101 81.4629L1.45618 233.081Z" fill="#989A9A"/>
<path d="M665.756 232.811L554.924 343.67L513.747 384.847C505.994 392.6 493.482 392.667 485.621 385.09C494.817 394.029 507.14 399.045 519.99 399.045H589.873C602.951 399.045 615.491 393.854 624.74 384.605L665.742 343.602V232.811H665.756Z" fill="#989A9A"/>
<path d="M589.874 399.759H519.99C506.912 399.759 494.521 394.73 485.123 385.602L486.134 384.564C493.671 391.845 505.833 391.737 513.235 384.335L554.858 342.712L666.485 231.058V343.899L666.269 344.115L625.267 385.117C615.815 394.568 603.249 399.773 589.887 399.773L589.874 399.759ZM493.644 390.55C501.438 395.593 510.525 398.303 519.99 398.303H589.874C602.858 398.303 615.06 393.247 624.229 384.079L665.029 343.292V234.55L554.993 344.613L514.26 385.346C508.732 390.874 500.737 392.613 493.644 390.55Z" fill="#989A9A"/>
<path d="M589.874 399.759H519.991C506.616 399.759 494.049 394.555 484.598 385.103L222.404 122.91L0 345.368V232.474L0.21573 232.258L152.063 80.4382C161.515 70.9865 174.081 65.782 187.443 65.782H257.326C270.701 65.782 283.267 70.9865 292.719 80.4382L554.912 342.631L666.472 231.045V343.885L666.256 344.101L625.254 385.103C615.802 394.555 603.236 399.759 589.874 399.759ZM222.404 120.861L222.917 121.373L485.623 384.079C494.805 393.261 507.007 398.317 519.991 398.317H589.874C602.858 398.317 615.061 393.261 624.229 384.092L665.029 343.306V234.564L554.926 344.694L554.414 344.182L291.708 81.4764C282.526 72.2943 270.324 67.2382 257.339 67.2382H187.456C174.472 67.2382 162.27 72.2943 153.101 81.4629L1.45618 233.081V341.863L222.404 120.861Z" fill="#989A9A"/>
<mask id="mask0_1261_5333" style="mask-type:luminance" maskUnits="userSpaceOnUse" x="1247" y="-85" width="203" height="541">
<path d="M1449.49 -85H1247.64V455.229H1449.49V-85Z" fill="white"/>
</mask>
<g mask="url(#mask0_1261_5333)">
<path d="M1772.55 455.431L1772.04 454.919L1661.7 344.586L1550.87 455.431L1550.36 454.919L1440.03 344.586L1329.71 454.919L1328.68 453.894L1440.03 342.537L1440.54 343.049L1550.87 453.382L1661.7 342.537L1662.22 343.049L1772.55 453.382L1883.38 342.537L1883.89 343.049L1994.74 453.894L1993.71 454.919L1883.38 344.586L1772.55 455.431Z" fill="#989A9A"/>
<path d="M1550.87 344.586L1550.36 344.074L1440.03 233.755L1329.71 344.074L1328.68 343.049L1440.03 231.692L1440.54 232.204L1550.87 342.537L1661.7 231.692L1662.22 232.204L1773.06 343.049L1772.04 344.074L1661.7 233.755L1550.87 344.586Z" fill="#989A9A"/>
<path d="M1550.87 233.755L1550.36 233.243L1440.03 122.91L1329.71 233.243L1328.68 232.218L1440.03 120.861L1440.54 121.373L1550.87 231.706L1605.78 176.789L1606.8 177.813L1550.87 233.755Z" fill="#989A9A"/>
<path d="M1772.55 122.91L1772.04 122.398L1661.7 12.0785L1550.87 122.91L1550.36 122.398L1440.03 12.0785L1329.71 122.398L1328.68 121.373L1440.03 10.0156L1440.54 10.528L1550.87 120.861L1661.7 10.0156L1662.22 10.528L1772.55 120.861L1883.38 10.0156L1883.89 10.528L1994.74 121.373L1993.71 122.398L1883.38 12.0785L1772.55 122.91Z" fill="#989A9A"/>
<path d="M1328.47 345.369V232.474L1328.68 232.258L1480.53 80.4382C1489.98 70.9865 1502.55 65.782 1515.91 65.782H1585.79C1598.87 65.782 1611.26 70.8112 1620.66 79.9393L1619.65 80.9775C1612.11 73.6966 1599.95 73.8044 1592.55 81.2067L1550.79 122.977L1328.47 345.342V345.369ZM1329.92 233.081V341.863L1550.95 120.78L1591.54 80.1955C1597.07 74.6674 1605.06 72.9281 1612.15 74.991C1604.36 69.9483 1595.27 67.2382 1585.81 67.2382H1515.92C1502.94 67.2382 1490.74 72.2943 1481.57 81.4629L1329.94 233.067L1329.92 233.081Z" fill="#989A9A"/>
<path d="M1550.87 121.885L1592.05 80.7078C1599.8 72.955 1612.32 72.8875 1620.18 80.4651C1610.98 71.5257 1598.66 66.51 1585.81 66.51H1515.93C1502.85 66.51 1490.31 71.701 1481.06 80.9505L1329.21 232.771V343.602L1550.89 121.872L1550.87 121.885Z" fill="#989A9A"/>
<path d="M1328.47 345.369V232.474L1328.68 232.258L1480.53 80.4382C1489.98 70.9865 1502.55 65.782 1515.91 65.782H1585.79C1598.87 65.782 1611.26 70.8112 1620.66 79.9393L1619.65 80.9775C1612.11 73.6966 1599.95 73.8044 1592.55 81.2067L1550.79 122.977L1328.47 345.342V345.369ZM1329.92 233.081V341.863L1550.95 120.78L1591.54 80.1955C1597.07 74.6674 1605.06 72.9281 1612.15 74.991C1604.36 69.9483 1595.27 67.2382 1585.81 67.2382H1515.92C1502.94 67.2382 1490.74 72.2943 1481.57 81.4629L1329.94 233.067L1329.92 233.081Z" fill="#989A9A"/>
<path d="M1918.34 399.759H1848.46C1835.08 399.759 1822.52 394.555 1813.07 385.103L1550.87 122.91L1328.47 345.368V232.474L1328.68 232.258L1480.53 80.4382C1489.98 70.9865 1502.55 65.782 1515.91 65.782H1585.79C1599.17 65.782 1611.74 70.9865 1621.19 80.4382L1883.38 342.631L1994.94 231.045V343.885L1994.72 344.101L1953.72 385.103C1944.27 394.555 1931.7 399.759 1918.34 399.759ZM1550.87 120.861L1551.39 121.373L1814.09 384.079C1823.27 393.261 1835.48 398.317 1848.46 398.317H1918.34C1931.33 398.317 1943.53 393.261 1952.7 384.092L1993.5 343.306V234.564L1883.39 344.694L1882.88 344.182L1620.18 81.4764C1610.99 72.2943 1598.79 67.2382 1585.81 67.2382H1515.92C1502.94 67.2382 1490.74 72.2943 1481.57 81.4629L1329.94 233.067V341.849L1550.89 120.847L1550.87 120.861Z" fill="#989A9A"/>
</g>
</g>
<defs>
<clipPath id="clip0_1261_5333">
<rect width="1440" height="456" fill="white"/>
</clipPath>
</defs>
</svg>
