<svg width="70" height="68" viewBox="0 0 70 68" fill="none" xmlns="http://www.w3.org/2000/svg">
<g clip-path="url(#clip0_1261_2326)">
<path d="M32.6227 31.6996C24.1279 34.4989 16.1575 38.2389 8.45512 41.8535C5.55888 43.2104 2.78237 44.5103 0.00585938 45.7588V67.1614C1.57941 66.5855 3.11304 65.9641 4.59537 65.3256C8.76869 63.5354 12.8793 61.6026 16.8531 59.7383C24.3559 56.2149 31.4483 52.8911 38.8143 50.4624C50.9295 46.4715 61.4198 45.9356 70.0116 48.8717V28.4498C58.8086 26.1294 46.2715 27.207 32.6341 31.6996H32.6227Z" fill="#F9F6EE"/>
<path d="M32.6227 4.49325C24.1279 7.29257 16.1575 11.0326 8.45512 14.6472C5.55888 16.0041 2.78237 17.304 0.00585938 18.5525V38.0223C2.78807 36.7738 5.56458 35.4739 8.45512 34.117C16.1575 30.5024 24.1279 26.7624 32.6227 23.963C46.2601 19.4704 58.7972 18.3929 70.0002 20.7133V1.24354C58.7972 -1.07687 46.2601 0.000664685 32.6227 4.49325Z" fill="#F9F6EE"/>
<path d="M5.42189 8.19331C10.0855 6.00403 14.8461 3.78054 19.7891 1.71668V0.0576172H0V10.719C1.87001 9.85807 3.72292 8.99148 5.42189 8.19331Z" fill="#F9F6EE"/>
<path d="M70 67.1614V56.215L67.7594 55.451C64.8632 54.4647 61.6134 53.963 58.0958 53.963C55.6157 53.963 52.9817 54.2139 50.2109 54.7042V67.1671H70.0057L70 67.1614Z" fill="#F9F6EE"/>
</g>
<defs>
<clipPath id="clip0_1261_2326">
<rect width="70" height="67.1038" fill="white" transform="translate(0 0.0576172)"/>
</clipPath>
</defs>
</svg>
