<svg width="1440" height="456" viewBox="0 0 1440 456" fill="none" xmlns="http://www.w3.org/2000/svg">
<g opacity="0.2" clip-path="url(#clip0_1280_5838)">
<path d="M1109.11 455.431L1108.6 454.919L998.278 344.586L887.433 455.431L886.92 454.919L776.588 344.586L666.269 454.919L665.244 453.894L776.588 342.537L777.1 343.049L887.433 453.382L998.278 342.537L998.79 343.049L1109.11 453.382L1219.95 342.537L1220.47 343.049L1331.3 453.894L1330.27 454.919L1219.95 344.586L1109.11 455.431Z" fill="#989A9A"/>
<path d="M887.433 344.586L886.921 344.074L776.588 233.755L666.269 344.074L665.244 343.049L776.588 231.692L777.1 232.204L887.433 342.537L998.278 231.692L998.79 232.204L1109.62 343.049L1108.6 344.074L998.278 233.755L887.433 344.586Z" fill="#989A9A"/>
<path d="M1330.27 344.074L1219.95 233.755L1165 288.712L1163.97 287.688L1219.95 231.692L1220.47 232.204L1331.3 343.049L1330.27 344.074Z" fill="#989A9A"/>
<path d="M887.433 233.755L886.92 233.243L776.588 122.91L666.269 233.243L665.244 232.218L776.588 120.861L777.1 121.373L887.433 231.706L942.336 176.789L943.361 177.813L887.433 233.755Z" fill="#989A9A"/>
<path d="M1109.11 233.755L1108.6 233.243L997.766 122.398L998.79 121.373L1109.11 231.706L1219.95 120.861L1220.47 121.373L1331.3 232.218L1330.27 233.243L1219.95 122.91L1109.11 233.755Z" fill="#989A9A"/>
<path d="M1109.11 122.91L1108.6 122.398L998.278 12.0785L887.433 122.91L886.92 122.398L776.588 12.0785L666.269 122.398L665.244 121.373L776.588 10.0156L777.1 10.528L887.433 120.861L998.278 10.0156L998.79 10.528L1109.11 120.861L1219.95 10.0156L1220.47 10.528L1331.3 121.373L1330.27 122.398L1219.95 12.0785L1109.11 122.91Z" fill="#989A9A"/>
<path d="M665.029 345.369V232.474L665.245 232.258L817.092 80.4382C826.544 70.9865 839.11 65.782 852.472 65.782H922.355C935.434 65.782 947.825 70.8112 957.222 79.9393L956.211 80.9775C948.674 73.6966 936.512 73.8044 929.11 81.2067L887.42 122.897L665.016 345.342L665.029 345.369ZM666.485 233.081V341.863L887.434 120.861L928.099 80.1955C933.627 74.6674 941.636 72.9281 948.715 74.991C940.921 69.9483 931.834 67.2382 922.368 67.2382H852.485C839.501 67.2382 827.299 72.2943 818.13 81.4629L666.499 233.067L666.485 233.081Z" fill="#989A9A"/>
<path d="M887.434 121.885L928.612 80.7078C936.365 72.955 948.877 72.8875 956.738 80.4651C947.542 71.5257 935.219 66.51 922.369 66.51H852.486C839.407 66.51 826.868 71.701 817.619 80.9505L665.771 232.771V343.602L887.448 121.872L887.434 121.885Z" fill="#989A9A"/>
<path d="M665.029 345.369V232.474L665.245 232.258L817.092 80.4382C826.544 70.9865 839.11 65.782 852.472 65.782H922.355C935.434 65.782 947.825 70.8112 957.222 79.9393L956.211 80.9775C948.674 73.6966 936.512 73.8044 929.11 81.2067L887.42 122.897L665.016 345.342L665.029 345.369ZM666.485 233.081V341.863L887.434 120.861L928.099 80.1955C933.627 74.6674 941.636 72.9281 948.715 74.991C940.921 69.9483 931.834 67.2382 922.368 67.2382H852.485C839.501 67.2382 827.299 72.2943 818.13 81.4629L666.499 233.067L666.485 233.081Z" fill="#989A9A"/>
<path d="M1330.79 232.811L1219.95 343.67L1178.78 384.847C1171.02 392.6 1158.51 392.667 1150.65 385.09C1159.85 394.029 1172.17 399.045 1185.02 399.045H1254.9C1267.98 399.045 1280.52 393.854 1289.77 384.605L1330.77 343.602V232.811H1330.79Z" fill="#989A9A"/>
<path d="M1254.9 399.759H1185.02C1171.93 399.759 1159.55 394.73 1150.15 385.602L1151.16 384.564C1158.7 391.845 1170.86 391.737 1178.26 384.335L1219.89 342.712L1331.51 231.058V343.899L1331.3 344.115L1290.3 385.117C1280.84 394.568 1268.28 399.773 1254.92 399.773L1254.9 399.759ZM1158.67 390.55C1166.47 395.593 1175.55 398.303 1185.02 398.303H1254.9C1267.89 398.303 1280.09 393.247 1289.26 384.079L1330.06 343.292V234.55L1220.02 344.613L1179.29 385.346C1173.76 390.874 1165.75 392.613 1158.67 390.55Z" fill="#989A9A"/>
<path d="M1254.9 399.759H1185.02C1171.65 399.759 1159.08 394.555 1149.63 385.103L887.434 122.91L665.029 345.368V232.474L665.245 232.258L817.092 80.4382C826.544 70.9865 839.11 65.782 852.472 65.782H922.355C935.73 65.782 948.297 70.9865 957.748 80.4382L1219.94 342.631L1331.5 231.045V343.885L1331.29 344.101L1290.28 385.103C1280.83 394.555 1268.27 399.759 1254.9 399.759ZM887.434 120.861L887.946 121.373L1150.65 384.079C1159.83 393.261 1172.04 398.317 1185.02 398.317H1254.9C1267.89 398.317 1280.09 393.261 1289.26 384.092L1330.06 343.306V234.564L1219.96 344.694L1219.44 344.182L956.737 81.4764C947.555 72.2943 935.353 67.2382 922.369 67.2382H852.485C839.501 67.2382 827.299 72.2943 818.13 81.4629L666.499 233.067V341.849L887.447 120.847L887.434 120.861Z" fill="#989A9A"/>
<path d="M444.08 455.431L443.568 454.919L333.235 344.586L222.404 455.431L221.891 454.919L111.559 344.586L1.23956 454.919L0.214844 453.894L111.559 342.537L112.071 343.049L222.404 453.382L333.235 342.537L333.747 343.049L444.08 453.382L554.911 342.537L555.424 343.049L666.269 453.894L665.244 454.919L554.911 344.586L444.08 455.431Z" fill="#989A9A"/>
<path d="M222.404 344.586L221.891 344.074L111.559 233.755L1.23956 344.074L0.214844 343.049L111.559 231.692L112.071 232.204L222.404 342.537L333.235 231.692L333.747 232.204L444.592 343.049L443.568 344.074L333.235 233.755L222.404 344.586Z" fill="#989A9A"/>
<path d="M665.244 344.074L554.912 233.755L499.954 288.712L498.93 287.688L554.912 231.692L555.424 232.204L666.269 343.049L665.244 344.074Z" fill="#989A9A"/>
<path d="M222.404 233.755L221.891 233.243L111.559 122.91L1.23956 233.243L0.214844 232.218L111.559 120.861L112.071 121.373L222.404 231.706L277.307 176.789L278.332 177.813L222.404 233.755Z" fill="#989A9A"/>
<path d="M444.08 233.755L443.568 233.243L332.723 122.398L333.747 121.373L444.08 231.706L554.911 120.861L555.424 121.373L666.269 232.218L665.244 233.243L554.911 122.91L444.08 233.755Z" fill="#989A9A"/>
<path d="M444.08 122.91L443.568 122.398L333.235 12.0785L222.404 122.91L221.891 122.398L111.559 12.0785L1.23956 122.398L0.214844 121.373L111.559 10.0156L112.071 10.528L222.404 120.861L333.235 10.0156L333.747 10.528L444.08 120.861L554.911 10.0156L555.424 10.528L666.269 121.373L665.244 122.398L554.911 12.0785L444.08 122.91Z" fill="#989A9A"/>
<path d="M0 345.369V232.474L0.21573 232.258L152.063 80.4382C161.515 70.9865 174.081 65.782 187.443 65.782H257.326C270.405 65.782 282.796 70.8112 292.193 79.9393L291.182 80.9775C283.645 73.6966 271.483 73.8044 264.081 81.2067L222.391 122.897L0 345.369ZM1.45618 233.081V341.863L222.404 120.861L263.07 80.1955C268.598 74.6674 276.593 72.9281 283.685 74.991C275.892 69.9483 266.805 67.2382 257.339 67.2382H187.456C174.472 67.2382 162.27 72.2943 153.101 81.4629L1.45618 233.081Z" fill="#989A9A"/>
<path d="M222.405 121.885L263.582 80.7078C271.335 72.955 283.848 72.8875 291.708 80.4651C282.513 71.5257 270.189 66.51 257.34 66.51H187.457C174.378 66.51 161.839 71.701 152.589 80.9505L0.728516 232.771V343.602L222.405 121.872V121.885Z" fill="#989A9A"/>
<path d="M0 345.369V232.474L0.21573 232.258L152.063 80.4382C161.515 70.9865 174.081 65.782 187.443 65.782H257.326C270.405 65.782 282.796 70.8112 292.193 79.9393L291.182 80.9775C283.645 73.6966 271.483 73.8044 264.081 81.2067L222.391 122.897L0 345.369ZM1.45618 233.081V341.863L222.404 120.861L263.07 80.1955C268.598 74.6674 276.593 72.9281 283.685 74.991C275.892 69.9483 266.805 67.2382 257.339 67.2382H187.456C174.472 67.2382 162.27 72.2943 153.101 81.4629L1.45618 233.081Z" fill="#989A9A"/>
<path d="M665.756 232.811L554.924 343.67L513.747 384.847C505.994 392.6 493.482 392.667 485.621 385.09C494.817 394.029 507.14 399.045 519.99 399.045H589.873C602.951 399.045 615.491 393.854 624.74 384.605L665.742 343.602V232.811H665.756Z" fill="#989A9A"/>
<path d="M589.874 399.759H519.99C506.912 399.759 494.521 394.73 485.123 385.602L486.134 384.564C493.671 391.845 505.833 391.737 513.235 384.335L554.858 342.712L666.485 231.058V343.899L666.269 344.115L625.267 385.117C615.815 394.568 603.249 399.773 589.887 399.773L589.874 399.759ZM493.644 390.55C501.438 395.593 510.525 398.303 519.99 398.303H589.874C602.858 398.303 615.06 393.247 624.229 384.079L665.029 343.292V234.55L554.993 344.613L514.26 385.346C508.732 390.874 500.737 392.613 493.644 390.55Z" fill="#989A9A"/>
<path d="M589.874 399.759H519.991C506.616 399.759 494.049 394.555 484.598 385.103L222.404 122.91L0 345.368V232.474L0.21573 232.258L152.063 80.4382C161.515 70.9865 174.081 65.782 187.443 65.782H257.326C270.701 65.782 283.267 70.9865 292.719 80.4382L554.912 342.631L666.472 231.045V343.885L666.256 344.101L625.254 385.103C615.802 394.555 603.236 399.759 589.874 399.759ZM222.404 120.861L222.917 121.373L485.623 384.079C494.805 393.261 507.007 398.317 519.991 398.317H589.874C602.858 398.317 615.061 393.261 624.229 384.092L665.029 343.306V234.564L554.926 344.694L554.414 344.182L291.708 81.4764C282.526 72.2943 270.324 67.2382 257.339 67.2382H187.456C174.472 67.2382 162.27 72.2943 153.101 81.4629L1.45618 233.081V341.863L222.404 120.861Z" fill="#989A9A"/>
<mask id="mask0_1280_5838" style="mask-type:luminance" maskUnits="userSpaceOnUse" x="1247" y="-85" width="203" height="541">
<path d="M1449.49 -85H1247.64V455.229H1449.49V-85Z" fill="white"/>
</mask>
<g mask="url(#mask0_1280_5838)">
<path d="M1772.55 455.431L1772.04 454.919L1661.7 344.586L1550.87 455.431L1550.36 454.919L1440.03 344.586L1329.71 454.919L1328.68 453.894L1440.03 342.537L1440.54 343.049L1550.87 453.382L1661.7 342.537L1662.22 343.049L1772.55 453.382L1883.38 342.537L1883.89 343.049L1994.74 453.894L1993.71 454.919L1883.38 344.586L1772.55 455.431Z" fill="#989A9A"/>
<path d="M1550.87 344.586L1550.36 344.074L1440.03 233.755L1329.71 344.074L1328.68 343.049L1440.03 231.692L1440.54 232.204L1550.87 342.537L1661.7 231.692L1662.22 232.204L1773.06 343.049L1772.04 344.074L1661.7 233.755L1550.87 344.586Z" fill="#989A9A"/>
<path d="M1550.87 233.755L1550.36 233.243L1440.03 122.91L1329.71 233.243L1328.68 232.218L1440.03 120.861L1440.54 121.373L1550.87 231.706L1605.78 176.789L1606.8 177.813L1550.87 233.755Z" fill="#989A9A"/>
<path d="M1772.55 122.91L1772.04 122.398L1661.7 12.0785L1550.87 122.91L1550.36 122.398L1440.03 12.0785L1329.71 122.398L1328.68 121.373L1440.03 10.0156L1440.54 10.528L1550.87 120.861L1661.7 10.0156L1662.22 10.528L1772.55 120.861L1883.38 10.0156L1883.89 10.528L1994.74 121.373L1993.71 122.398L1883.38 12.0785L1772.55 122.91Z" fill="#989A9A"/>
<path d="M1328.47 345.369V232.474L1328.68 232.258L1480.53 80.4382C1489.98 70.9865 1502.55 65.782 1515.91 65.782H1585.79C1598.87 65.782 1611.26 70.8112 1620.66 79.9393L1619.65 80.9775C1612.11 73.6966 1599.95 73.8044 1592.55 81.2067L1550.79 122.977L1328.47 345.342V345.369ZM1329.92 233.081V341.863L1550.95 120.78L1591.54 80.1955C1597.07 74.6674 1605.06 72.9281 1612.15 74.991C1604.36 69.9483 1595.27 67.2382 1585.81 67.2382H1515.92C1502.94 67.2382 1490.74 72.2943 1481.57 81.4629L1329.94 233.067L1329.92 233.081Z" fill="#989A9A"/>
<path d="M1550.87 121.885L1592.05 80.7078C1599.8 72.955 1612.32 72.8875 1620.18 80.4651C1610.98 71.5257 1598.66 66.51 1585.81 66.51H1515.93C1502.85 66.51 1490.31 71.701 1481.06 80.9505L1329.21 232.771V343.602L1550.89 121.872L1550.87 121.885Z" fill="#989A9A"/>
<path d="M1328.47 345.369V232.474L1328.68 232.258L1480.53 80.4382C1489.98 70.9865 1502.55 65.782 1515.91 65.782H1585.79C1598.87 65.782 1611.26 70.8112 1620.66 79.9393L1619.65 80.9775C1612.11 73.6966 1599.95 73.8044 1592.55 81.2067L1550.79 122.977L1328.47 345.342V345.369ZM1329.92 233.081V341.863L1550.95 120.78L1591.54 80.1955C1597.07 74.6674 1605.06 72.9281 1612.15 74.991C1604.36 69.9483 1595.27 67.2382 1585.81 67.2382H1515.92C1502.94 67.2382 1490.74 72.2943 1481.57 81.4629L1329.94 233.067L1329.92 233.081Z" fill="#989A9A"/>
<path d="M1918.34 399.759H1848.46C1835.08 399.759 1822.52 394.555 1813.07 385.103L1550.87 122.91L1328.47 345.368V232.474L1328.68 232.258L1480.53 80.4382C1489.98 70.9865 1502.55 65.782 1515.91 65.782H1585.79C1599.17 65.782 1611.74 70.9865 1621.19 80.4382L1883.38 342.631L1994.94 231.045V343.885L1994.72 344.101L1953.72 385.103C1944.27 394.555 1931.7 399.759 1918.34 399.759ZM1550.87 120.861L1551.39 121.373L1814.09 384.079C1823.27 393.261 1835.48 398.317 1848.46 398.317H1918.34C1931.33 398.317 1943.53 393.261 1952.7 384.092L1993.5 343.306V234.564L1883.39 344.694L1882.88 344.182L1620.18 81.4764C1610.99 72.2943 1598.79 67.2382 1585.81 67.2382H1515.92C1502.94 67.2382 1490.74 72.2943 1481.57 81.4629L1329.94 233.067V341.849L1550.89 120.847L1550.87 120.861Z" fill="#989A9A"/>
</g>
</g>
<path d="M212.433 187.279C203.732 188.116 197.708 189.873 194.361 192.55C191.014 195.227 189.341 199.662 189.341 205.853V339.385C189.341 345.576 191.014 350.011 194.361 352.688C197.708 355.365 203.732 357.122 212.433 357.959V361.473H150.687V357.959C159.388 357.122 165.412 355.365 168.759 352.688C172.106 350.011 173.779 345.576 173.779 339.385V273.623H79.654V339.385C79.654 345.576 81.3273 350.011 84.674 352.688C88.0207 355.365 94.0447 357.122 102.746 357.959V361.473H41V357.959C49.7013 357.122 55.7253 355.365 59.072 352.688C62.4187 350.011 64.092 345.576 64.092 339.385V205.853C64.092 199.662 62.4187 195.227 59.072 192.55C55.7253 189.873 49.7013 188.116 41 187.279V183.765H102.746V187.279C94.0447 188.116 88.0207 189.873 84.674 192.55C81.3273 195.227 79.654 199.662 79.654 205.853V266.595H173.779V205.853C173.779 199.662 172.106 195.227 168.759 192.55C165.412 189.873 159.388 188.116 150.687 187.279V183.765H212.433V187.279Z" fill="#F9F6EE"/>
<path d="M310.515 206.606V213.634H251.781V206.606H310.515ZM342.392 349.174C339.715 355.031 336.703 359.13 333.356 361.473C330.177 363.983 327.165 365.238 324.32 365.238C319.802 365.238 315.954 363.648 312.774 360.469C309.762 357.122 308.256 352.604 308.256 346.915V332.106C304.407 342.648 299.137 350.847 292.443 356.704C285.75 362.393 277.969 365.238 269.1 365.238C259.562 365.238 251.53 362.226 245.004 356.202C238.478 350.011 235.215 342.146 235.215 332.608C235.215 319.891 239.231 310.018 247.263 302.99C255.295 295.962 267.762 291.611 284.662 289.938L308.256 287.93V277.388C308.256 265.842 305.412 256.722 299.722 250.029C294.033 243.168 286.336 239.738 276.63 239.738C267.929 239.738 261.319 241.83 256.801 246.013C252.283 250.196 250.024 255.133 250.024 260.822C250.024 261.826 250.192 263.332 250.526 265.34C251.028 267.348 251.279 269.021 251.279 270.36C251.279 273.205 250.526 275.38 249.02 276.886C247.682 278.392 245.757 279.145 243.247 279.145C241.072 279.145 239.148 278.308 237.474 276.635C235.968 274.962 235.215 272.368 235.215 268.854C235.383 263.499 237.056 258.061 240.235 252.539C243.582 247.017 248.686 242.332 255.546 238.483C262.574 234.634 271.276 232.71 281.65 232.71C294.033 232.71 303.822 236.726 311.017 244.758C318.38 252.79 322.061 263.75 322.061 277.639V346.413C322.061 349.425 322.731 351.768 324.069 353.441C325.408 354.947 327.249 355.7 329.591 355.7C333.105 355.7 336.285 353.106 339.129 347.919L342.392 349.174ZM308.256 294.456L285.666 297.217C273.618 298.723 264.666 302.07 258.809 307.257C253.12 312.277 250.275 319.305 250.275 328.341C250.275 335.704 252.702 341.811 257.554 346.664C262.574 351.349 268.598 353.692 275.626 353.692C282.32 353.692 288.511 351.266 294.2 346.413C299.89 341.393 304.575 334.532 308.256 325.831V294.456Z" fill="#F9F6EE"/>
<path d="M423.477 232.71C434.019 232.71 443.222 235.387 451.087 240.742C458.952 246.097 464.976 253.627 469.159 263.332C473.51 272.87 475.685 283.83 475.685 296.213C475.685 309.934 473.259 321.982 468.406 332.357C463.721 342.732 457.111 350.847 448.577 356.704C440.043 362.393 430.17 365.238 418.959 365.238C412.098 365.238 405.489 363.983 399.13 361.473C392.939 358.796 387.835 355.198 383.819 350.68V392.346C383.819 397.701 385.743 401.298 389.592 403.139C393.608 405.147 400.301 406.569 409.672 407.406V410.92H351.189V407.406C357.213 406.402 361.815 404.896 364.994 402.888C368.341 401.047 370.014 397.533 370.014 392.346V259.818C370.014 254.631 369.261 250.949 367.755 248.774C366.249 246.599 363.739 245.511 360.225 245.511C358.217 245.511 355.289 245.929 351.44 246.766V243.252L380.305 232.71H383.819V265.089C386.162 255.384 390.931 247.603 398.126 241.746C405.321 235.722 413.772 232.71 423.477 232.71ZM421.72 358.21C429.417 358.21 436.194 356.035 442.051 351.684C447.908 347.333 452.426 341.226 455.605 333.361C458.952 325.329 460.625 316.293 460.625 306.253C460.625 293.703 458.784 282.575 455.103 272.87C451.589 262.997 446.569 255.384 440.043 250.029C433.517 244.507 425.903 241.746 417.202 241.746C409.17 241.746 402.058 244.758 395.867 250.782C389.843 256.806 385.827 264.169 383.819 272.87V319.054C383.819 325.58 385.241 331.855 388.086 337.879C390.931 343.903 395.198 348.839 400.887 352.688C406.744 356.369 413.688 358.21 421.72 358.21Z" fill="#F9F6EE"/>
<path d="M608.344 349.174C605.667 355.031 602.655 359.13 599.308 361.473C596.129 363.983 593.117 365.238 590.272 365.238C585.754 365.238 581.906 363.648 578.726 360.469C575.714 357.122 574.208 352.604 574.208 346.915V332.106C570.36 342.648 565.089 350.847 558.395 356.704C551.702 362.393 543.921 365.238 535.052 365.238C525.514 365.238 517.482 362.226 510.956 356.202C504.43 350.011 501.167 342.146 501.167 332.608C501.167 319.891 505.183 310.018 513.215 302.99C521.247 295.962 533.714 291.611 550.614 289.938L574.208 287.93V277.388C574.208 265.842 571.364 256.722 565.674 250.029C559.985 243.168 552.288 239.738 542.582 239.738C533.881 239.738 527.271 241.83 522.753 246.013C518.235 250.196 515.976 255.133 515.976 260.822C515.976 261.826 516.144 263.332 516.478 265.34C516.98 267.348 517.231 269.021 517.231 270.36C517.231 273.205 516.478 275.38 514.972 276.886C513.634 278.392 511.709 279.145 509.199 279.145C507.024 279.145 505.1 278.308 503.426 276.635C501.92 274.962 501.167 272.368 501.167 268.854C501.335 263.499 503.008 258.061 506.187 252.539C509.534 247.017 514.638 242.332 521.498 238.483C528.526 234.634 537.228 232.71 547.602 232.71C559.985 232.71 569.774 236.726 576.969 244.758C584.332 252.79 588.013 263.75 588.013 277.639V346.413C588.013 349.425 588.683 351.768 590.021 353.441C591.36 354.947 593.201 355.7 595.543 355.7C599.057 355.7 602.237 353.106 605.081 347.919L608.344 349.174ZM574.208 294.456L551.618 297.217C539.57 298.723 530.618 302.07 524.761 307.257C519.072 312.277 516.227 319.305 516.227 328.341C516.227 335.704 518.654 341.811 523.506 346.664C528.526 351.349 534.55 353.692 541.578 353.692C548.272 353.692 554.463 351.266 560.152 346.413C565.842 341.393 570.527 334.532 574.208 325.831V294.456Z" fill="#F9F6EE"/>
<path d="M645.504 211.124C641.99 211.124 638.978 210.036 636.468 207.861C634.125 205.518 632.954 202.674 632.954 199.327C632.954 195.98 634.125 193.136 636.468 190.793C638.978 188.45 641.99 187.279 645.504 187.279C648.851 187.279 651.612 188.45 653.787 190.793C656.13 193.136 657.301 195.98 657.301 199.327C657.301 202.674 656.13 205.518 653.787 207.861C651.612 210.036 648.851 211.124 645.504 211.124ZM652.532 341.895C652.532 347.082 653.871 350.847 656.548 353.19C659.393 355.533 664.329 357.122 671.357 357.959V361.473H620.153V357.959C627.014 357.122 631.783 355.533 634.46 353.19C637.305 350.847 638.727 347.082 638.727 341.895V259.818C638.727 254.463 637.974 250.782 636.468 248.774C635.129 246.599 632.703 245.511 629.189 245.511C627.014 245.511 624.002 245.929 620.153 246.766V243.252L649.018 232.71H652.532V341.895Z" fill="#F9F6EE"/>
<path d="M811.731 183.765C824.448 183.765 835.576 185.773 845.114 189.789C854.819 193.805 862.265 199.578 867.453 207.108C872.807 214.471 875.485 223.088 875.485 232.961C875.485 242.834 872.807 251.535 867.453 259.065C862.265 266.595 854.819 272.452 845.114 276.635C835.576 280.651 824.448 282.659 811.731 282.659H784.121V336.624C784.121 342.481 784.957 346.915 786.631 349.927C788.304 352.939 790.73 355.031 793.91 356.202C797.089 357.206 801.523 357.792 807.213 357.959V361.473H745.467V357.959C754.168 357.624 760.192 356.035 763.539 353.19C766.885 350.345 768.559 344.823 768.559 336.624V208.363C768.559 200.331 766.802 194.893 763.288 192.048C759.941 189.203 754.001 187.614 745.467 187.279V183.765H811.731ZM809.974 275.631C824.364 275.631 835.91 271.699 844.612 263.834C853.48 255.969 857.915 245.678 857.915 232.961C857.915 220.411 853.564 210.287 844.863 202.59C836.161 194.725 824.532 190.793 809.974 190.793H784.121V275.631H809.974Z" fill="#F9F6EE"/>
<path d="M1021.52 349.174C1019.01 355.031 1016.08 359.13 1012.73 361.473C1009.38 363.983 1006.29 365.238 1003.44 365.238C998.926 365.238 995.077 363.648 991.898 360.469C988.886 357.122 987.38 352.604 987.38 346.915V335.871C979.682 346.246 972.403 353.776 965.543 358.461C958.682 362.979 951.403 365.238 943.706 365.238C932.494 365.238 923.709 361.557 917.351 354.194C911.159 346.831 908.064 336.791 908.064 324.074V259.818C908.064 254.631 907.311 250.949 905.805 248.774C904.299 246.599 901.789 245.511 898.275 245.511C896.1 245.511 893.087 245.929 889.239 246.766V243.252L918.104 232.71H921.618V322.066C921.618 331.939 924.128 339.469 929.148 344.656C934.335 349.843 941.447 352.437 950.483 352.437C957.176 352.437 963.284 350.68 968.806 347.166C974.328 343.652 980.519 337.879 987.38 329.847V259.818C987.38 254.631 986.627 250.949 985.121 248.774C983.615 246.599 981.105 245.511 977.591 245.511C975.583 245.511 972.654 245.929 968.806 246.766V243.252L997.671 232.71H1001.18V346.413C1001.18 349.258 1001.85 351.517 1003.19 353.19C1004.7 354.863 1006.54 355.7 1008.71 355.7C1012.23 355.7 1015.49 353.106 1018.5 347.919L1021.52 349.174Z" fill="#F9F6EE"/>
<path d="M1099.18 232.71C1109.72 232.71 1118.92 235.387 1126.79 240.742C1134.65 246.097 1140.68 253.627 1144.86 263.332C1149.21 272.87 1151.38 283.83 1151.38 296.213C1151.38 309.934 1148.96 321.982 1144.11 332.357C1139.42 342.732 1132.81 350.847 1124.28 356.704C1115.74 362.393 1105.87 365.238 1094.66 365.238C1086.96 365.238 1079.77 363.648 1073.07 360.469C1066.38 357.29 1061.02 353.023 1057.01 347.668L1049.23 365.238H1045.71V207.108C1045.71 201.921 1044.96 198.239 1043.45 196.064C1041.95 193.889 1039.44 192.801 1035.92 192.801C1033.92 192.801 1030.99 193.219 1027.14 194.056V190.542L1056 180H1059.52V265.089C1061.86 255.384 1066.63 247.603 1073.83 241.746C1081.02 235.722 1089.47 232.71 1099.18 232.71ZM1097.42 358.21C1105.12 358.21 1111.89 356.035 1117.75 351.684C1123.61 347.333 1128.13 341.226 1131.3 333.361C1134.65 325.329 1136.32 316.293 1136.32 306.253C1136.32 293.703 1134.48 282.575 1130.8 272.87C1127.29 262.997 1122.27 255.384 1115.74 250.029C1109.22 244.507 1101.6 241.746 1092.9 241.746C1084.87 241.746 1077.76 244.758 1071.57 250.782C1065.54 256.806 1061.53 264.169 1059.52 272.87V319.054C1059.52 325.58 1060.94 331.855 1063.79 337.879C1066.63 343.903 1070.9 348.839 1076.59 352.688C1082.44 356.369 1089.39 358.21 1097.42 358.21Z" fill="#F9F6EE"/>
<path d="M1200.86 341.895C1200.86 347.082 1202.2 350.847 1204.88 353.19C1207.72 355.533 1212.66 357.122 1219.68 357.959V361.473H1168.48V357.959C1175.34 357.122 1180.11 355.533 1182.79 353.19C1185.63 350.847 1187.05 347.082 1187.05 341.895V207.108C1187.05 201.921 1186.3 198.239 1184.8 196.064C1183.46 193.889 1180.95 192.801 1177.27 192.801C1175.26 192.801 1172.33 193.219 1168.48 194.056V190.542L1197.35 180H1200.86V341.895Z" fill="#F9F6EE"/>
<path d="M1260.26 211.124C1256.74 211.124 1253.73 210.036 1251.22 207.861C1248.88 205.518 1247.71 202.674 1247.71 199.327C1247.71 195.98 1248.88 193.136 1251.22 190.793C1253.73 188.45 1256.74 187.279 1260.26 187.279C1263.6 187.279 1266.37 188.45 1268.54 190.793C1270.88 193.136 1272.05 195.98 1272.05 199.327C1272.05 202.674 1270.88 205.518 1268.54 207.861C1266.37 210.036 1263.6 211.124 1260.26 211.124ZM1267.29 341.895C1267.29 347.082 1268.62 350.847 1271.3 353.19C1274.15 355.533 1279.08 357.122 1286.11 357.959V361.473H1234.91V357.959C1241.77 357.122 1246.54 355.533 1249.21 353.19C1252.06 350.847 1253.48 347.082 1253.48 341.895V259.818C1253.48 254.463 1252.73 250.782 1251.22 248.774C1249.88 246.599 1247.46 245.511 1243.94 245.511C1241.77 245.511 1238.76 245.929 1234.91 246.766V243.252L1263.77 232.71H1267.29V341.895Z" fill="#F9F6EE"/>
<path d="M1392.12 272.117C1387.94 260.738 1382.42 252.539 1375.56 247.519C1368.69 242.332 1360.58 239.738 1351.21 239.738C1343.68 239.738 1336.82 241.997 1330.63 246.515C1324.6 251.033 1319.83 257.308 1316.32 265.34C1312.97 273.205 1311.3 282.073 1311.3 291.946C1311.3 302.655 1313.31 312.695 1317.32 322.066C1321.34 331.269 1327.11 338.632 1334.64 344.154C1342.17 349.676 1350.96 352.437 1361 352.437C1368.86 352.437 1375.97 349.927 1382.33 344.907C1388.86 339.887 1393.46 333.194 1396.14 324.827L1399.4 325.58C1397.06 337.293 1391.79 346.831 1383.59 354.194C1375.39 361.389 1365.52 364.987 1353.97 364.987C1343.26 364.987 1333.47 362.226 1324.6 356.704C1315.9 351.182 1309.04 343.568 1304.02 333.863C1299 324.158 1296.49 313.365 1296.49 301.484C1296.49 288.599 1298.83 276.886 1303.52 266.344C1308.2 255.802 1314.65 247.603 1322.85 241.746C1331.04 235.722 1340.16 232.71 1350.2 232.71C1355.89 232.71 1360.83 233.296 1365.01 234.467C1369.2 235.471 1373.21 236.81 1377.06 238.483C1380.07 239.654 1382 240.24 1382.83 240.24C1384.01 240.24 1384.84 239.654 1385.34 238.483C1386.01 237.312 1386.43 235.387 1386.6 232.71H1389.61L1395.64 272.117H1392.12Z" fill="#F9F6EE"/>
<defs>
<clipPath id="clip0_1280_5838">
<rect width="1440" height="456" fill="white"/>
</clipPath>
</defs>
</svg>
