<svg width="140" height="135" viewBox="0 0 140 135" fill="none" xmlns="http://www.w3.org/2000/svg">
<g clip-path="url(#clip0_1261_5324)">
<path d="M65.2455 63.2839C48.2557 68.8825 32.315 76.3625 16.9102 83.5917C11.1178 86.3055 5.56474 88.9053 0.0117188 91.4025V134.207C3.15881 133.056 6.22609 131.813 9.19074 130.536C17.5374 126.955 25.7586 123.09 33.7061 119.361C48.7118 112.315 62.8966 105.667 77.6286 100.81C101.859 92.8278 122.84 91.7559 140.023 97.6282V56.7844C117.617 52.1436 92.5431 54.2987 65.2683 63.2839H65.2455Z" fill="#F9F6EE"/>
<path d="M65.2455 8.87115C48.2557 14.4698 32.315 21.9498 16.9102 29.179C11.1178 31.8928 5.56474 34.4926 0.0117188 36.9897V75.9293C5.57614 73.4321 11.1292 70.8324 16.9102 68.1186C32.315 60.8894 48.2557 53.4093 65.2455 47.8107C92.5203 38.8255 117.594 36.6705 140 41.3113V2.37172C117.594 -2.2691 92.5203 -0.114027 65.2455 8.87115Z" fill="#F9F6EE"/>
<path d="M10.8438 16.2714C20.171 11.8928 29.6921 7.44584 39.5781 3.31813V0H0V21.3227C3.74002 19.6009 7.44584 17.8677 10.8438 16.2714Z" fill="#F9F6EE"/>
<path d="M140 134.207V112.315L135.519 110.787C129.726 108.814 123.227 107.811 116.192 107.811C111.231 107.811 105.963 108.312 100.422 109.293V134.219H140.011L140 134.207Z" fill="#F9F6EE"/>
</g>
<defs>
<clipPath id="clip0_1261_5324">
<rect width="140" height="134.208" fill="white"/>
</clipPath>
</defs>
</svg>
