<svg width="189" height="45" viewBox="0 0 189 45" fill="none" xmlns="http://www.w3.org/2000/svg">
<g clip-path="url(#clip0_1983_5228)">
<path d="M64.8336 41.7207L64.1933 40.4399H60.6349V38.1458H64.1084V36.8706H60.6349V34.7188H64.1933L64.8336 33.4437H59.19V41.7207H64.8336ZM53.6937 41.7207V34.7188H55.6429L56.1925 33.4437H49.7556V34.7188H52.2488V41.7207H53.6937ZM79.5944 41.7207V33.4437H78.1495V36.8308H73.8601V33.4437H72.4208V41.7207H73.8601V38.1059H78.1495V41.7207H79.5944ZM89.0684 41.7264L88.4338 40.4513H84.8697V38.1515H88.3432V36.8763H84.8697V34.7245H88.4338L89.0684 33.4494H83.4248V41.7264H89.0684ZM98.8768 41.7207L96.8653 38.4703C97.8512 38.3109 98.8145 37.5139 98.8145 36.0395C98.8145 34.5139 97.7549 33.4494 96.123 33.4494H92.5022V41.7264H93.9471V38.6353H95.3807L97.2109 41.7264H98.8768V41.7207ZM95.9247 37.3545H93.9471V34.7245H95.9247C96.7406 34.7245 97.3356 35.2482 97.3356 36.0395C97.3356 36.8308 96.7406 37.3545 95.9247 37.3545ZM108.181 41.7264L107.546 40.4513H103.982V38.1515H107.456V36.8763H103.982V34.7245H107.546L108.181 33.4494H102.537V41.7264H108.181ZM119.242 41.7207V33.4437H117.797V39.1875L113.587 33.4437H112.102V41.7207H113.547V35.8118L117.848 41.7207H119.242ZM129.764 34.5993C129.101 33.8592 128.166 33.3071 126.817 33.3071C124.432 33.3071 122.494 34.9921 122.494 37.5879C122.494 40.1837 124.432 41.8801 126.817 41.8801C128.251 41.8801 129.401 41.2881 130.212 40.383V37.2805H126.908V38.5557H128.772V39.8479C128.404 40.1951 127.662 40.5936 126.817 40.5936C125.185 40.5936 123.979 39.3298 123.979 37.5879C123.979 35.8517 125.191 34.5936 126.817 34.5936C127.667 34.5936 128.376 35.0092 128.818 35.55L129.764 34.5993ZM141.561 41.7207L138.326 33.4437H136.524L133.288 41.7207H134.932L135.538 40.1325H139.317L139.924 41.7207H141.561ZM138.904 38.8517H135.94L137.425 34.9067L138.904 38.8517ZM155.982 41.7207L158.05 33.4437H156.43L155.121 39.6486L153.415 33.4437H152.265L150.559 39.6486L149.233 33.4437H147.618L149.698 41.7207H151.239L152.831 35.6126L154.441 41.7207H155.982ZM168.159 41.7207L164.923 33.4437H163.121L159.886 41.7207H161.529L162.135 40.1325H165.915L166.521 41.7207H168.159ZM165.507 38.8517H162.543L164.028 34.9067L165.507 38.8517ZM177.678 41.7207L174.086 37.3545L177.435 33.4437H175.644L172.42 37.3887V33.4437H170.975V41.7207H172.42V39.0737L173.134 38.2312L175.899 41.7207H177.678ZM188.201 41.7207L184.965 33.4437H183.163L179.928 41.7207H181.571L182.177 40.1325H185.957L186.563 41.7207H188.201ZM185.543 38.8517H182.58L184.064 34.9067L185.543 38.8517ZM188.591 27.9219V12.882H185.384V22.3317L178.403 12.882H175.106V27.9219H178.318V18.1135L185.498 27.9219H188.591ZM64.9753 27.8308L68.6471 12.7909H65.032L63.0318 23.3393L60.1873 12.7909H57.6771L54.8099 23.3393L52.7871 12.7909H49.2003L52.8891 27.8308H56.3002L58.9237 17.5044L61.5642 27.8308H64.9753ZM81.6683 27.9446L80.433 25.1268H74.2114V21.7226H80.2743V18.8991H74.2114V15.7226H80.433L81.6683 12.9048H71.0042V27.9446H81.6683ZM143.182 14.9826C141.992 13.622 140.207 12.5632 137.629 12.5632C133.181 12.5632 129.537 15.6144 129.537 20.4133C129.537 25.1894 132.829 28.2862 137.272 28.2862C140.031 28.2862 142.553 27.1477 144.1 25.4171V19.5936H137.464V22.4171H140.859V24.2387C140.241 24.808 138.966 25.4 137.623 25.4C134.864 25.4 132.858 23.2824 132.858 20.419C132.858 17.5499 134.864 15.438 137.623 15.438C139.108 15.438 140.303 16.2179 141.023 17.1685L143.182 14.9826ZM164.821 28.1951C169.383 28.1951 172.867 24.9503 172.867 20.4133C172.867 15.882 169.547 12.6315 164.986 12.6315C160.447 12.6315 157.126 15.8763 157.126 20.4133C157.121 24.9503 160.283 28.1951 164.821 28.1951ZM164.98 25.3545C162.203 25.3545 160.419 23.2141 160.419 20.419C160.419 17.6012 162.203 15.4835 164.98 15.4835C167.756 15.4835 169.564 17.6012 169.564 20.419C169.57 23.2141 167.762 25.3545 164.98 25.3545ZM152.565 27.9219V15.7055H156.333L157.568 12.882H144.933V15.7055H149.335V27.9219H152.565ZM107.206 12.882H110.413V27.9219H107.206V12.882ZM93.0859 27.9219V25.104H87.3912V12.882H84.1841V27.9219H93.0859ZM104.6 27.9219V25.104H98.9052V12.882H95.6924V27.9219H104.6ZM127.186 27.9219V12.882H123.979V22.3317L116.998 12.882H113.7V27.9219H116.913V18.1135L124.092 27.9219H127.186ZM77.2882 7.92942C79.1807 7.92942 80.5123 6.54612 80.5123 4.65048C80.5123 2.76053 79.1807 1.37154 77.2882 1.37154C75.3956 1.37154 74.0641 2.75484 74.0641 4.65048C74.0641 6.54612 75.3956 7.92942 77.2882 7.92942ZM77.2882 6.9446C76.0133 6.9446 75.1973 5.95409 75.1973 4.65617C75.1973 3.34687 76.0076 2.36774 77.2882 2.36774C78.5574 2.36774 79.3791 3.34687 79.3791 4.65617C79.3791 5.95409 78.5574 6.9446 77.2882 6.9446ZM53.0817 7.81557L55.3369 1.4797H54.079L52.3904 6.60874L50.7075 1.4797H49.4496L51.7048 7.81557H53.0817ZM99.5795 7.81557L97.1033 1.4797H95.7207L93.2445 7.81557H94.5024L94.9671 6.59735H97.8626L98.3272 7.81557H99.5795ZM97.5452 5.62392H95.2731L96.4063 2.60114L97.5452 5.62392ZM57.5921 1.4797H58.697V7.81557H57.5921V1.4797ZM65.6666 3.14763L66.4089 2.39621C65.9272 1.82125 65.2246 1.37723 64.1877 1.37723C62.3235 1.37723 60.8786 2.70361 60.8786 4.65617C60.8786 6.60304 62.3235 7.93511 64.1877 7.93511C65.2246 7.93511 65.9216 7.49109 66.4089 6.91614L65.6666 6.17041C65.3436 6.62581 64.7996 6.95029 64.1877 6.95029C62.9411 6.95029 62.0118 5.99394 62.0118 4.66186C62.0118 3.32979 62.9411 2.37344 64.1877 2.37344C64.7996 2.36205 65.3436 2.69792 65.6666 3.14763ZM71.0269 7.81557V2.45883H72.5228L72.9421 1.4797H68.0124V2.45883H69.922V7.81557H71.0269ZM87.5215 7.81557L85.9803 5.3279C86.7339 5.20266 87.4762 4.59925 87.4762 3.46642C87.4762 2.29943 86.6659 1.4797 85.4137 1.4797H82.6429V7.81557H83.7478V5.45314H84.847L86.2466 7.81557H87.5215ZM85.2663 4.47401H83.7534V2.45883H85.2663C85.8896 2.45883 86.343 2.85731 86.343 3.46642C86.343 4.07553 85.8896 4.47401 85.2663 4.47401ZM90.0317 1.4797H91.1366V7.81557H90.0317V1.4797ZM107.801 7.92942C109.626 7.92942 110.521 6.88767 110.521 5.31082V1.4797H109.405V5.27667C109.405 6.28426 108.844 6.93891 107.796 6.93891C106.736 6.93891 106.181 6.28426 106.181 5.27667V1.4797H105.064V5.31651C105.07 6.87629 105.965 7.92942 107.801 7.92942ZM118.652 7.81557V1.4797H117.547V5.88008L114.318 1.4797H113.19V7.81557H114.289V3.29564L117.581 7.81557H118.652ZM121.587 1.4797H122.692V7.81557H121.587V1.4797ZM128.772 7.81557L131.022 1.4797H129.764L128.081 6.60874L126.398 1.4797H125.14L127.39 7.81557H128.772ZM137.81 7.81557L137.323 6.83644H134.597V5.08312H137.255V4.10399H134.597V2.45883H137.323L137.81 1.4797H133.492V7.81557H137.81ZM145.358 7.81557L143.816 5.3279C144.57 5.20266 145.312 4.59925 145.312 3.46642C145.312 2.29943 144.502 1.4797 143.25 1.4797H140.479V7.81557H141.584V5.45314H142.683L144.083 7.81557H145.358ZM143.097 4.47401H141.584V2.45883H143.097C143.72 2.45883 144.173 2.85731 144.173 3.46642C144.173 4.07553 143.72 4.47401 143.097 4.47401ZM151.613 3.00532L152.35 2.25958C151.766 1.69602 150.973 1.38292 149.993 1.38292C148.61 1.38292 147.698 2.19127 147.698 3.23302C147.698 5.57268 151.375 4.74156 151.375 6.07363C151.375 6.48919 151.018 6.93891 150.106 6.93891C149.296 6.93891 148.667 6.58597 148.23 6.17041L147.516 6.89906L147.499 6.92183C148.055 7.51955 148.899 7.92942 150.061 7.92942C151.76 7.92942 152.497 7.02999 152.497 5.97116C152.497 3.60304 148.831 4.33739 148.831 3.15902C148.831 2.68653 149.245 2.36774 149.902 2.36774C150.52 2.37344 151.137 2.57837 151.613 3.00532ZM155.098 1.4797H156.203V7.81557H155.098V1.4797ZM161.592 7.81557V2.45883H163.087L163.501 1.4797H158.577V2.45883H160.487V7.81557H161.592ZM168.329 7.81557V5.18558L170.544 1.4797H169.275L167.779 4.20076L166.266 1.4797H165.003L167.224 5.18558V7.81557H168.329ZM178.313 7.92942C180.205 7.92942 181.537 6.54612 181.537 4.65048C181.537 2.76053 180.205 1.37154 178.313 1.37154C176.42 1.37154 175.089 2.75484 175.089 4.65048C175.089 6.54612 176.42 7.92942 178.313 7.92942ZM178.313 6.9446C177.038 6.9446 176.222 5.95409 176.222 4.65617C176.222 3.34687 177.032 2.36774 178.313 2.36774C179.582 2.36774 180.404 3.34687 180.404 4.65617C180.404 5.95409 179.576 6.9446 178.313 6.9446ZM185.124 7.81557V5.08312H187.764V4.10399H185.124V2.45883H187.844L188.337 1.4797H184.019V7.81557H185.124ZM7.14495 31.9408C8.9865 31.9124 9.80812 30.5462 11.6497 30.5063C13.6272 30.4608 14.5338 31.9522 16.5057 31.9522C18.4832 31.9522 19.3842 30.5063 21.3617 30.5063C23.3393 30.5063 24.2402 31.9522 26.2177 31.9522C28.1953 31.9522 29.0962 30.4608 31.0738 30.5063C32.9153 30.5518 33.7256 31.9181 35.5672 31.9408C35.5728 31.9408 35.5785 31.9351 35.5842 31.9351C31.2041 36.6999 23.9852 40.5253 21.3391 41.698C19.2255 40.8441 11.2644 36.8991 6.60099 31.8327C6.78231 31.8782 6.95797 31.9408 7.14495 31.9408ZM36.6041 22.5196L31.7424 27.4551L26.875 22.5196H36.6041ZM21.6904 16.9294H31.4194L26.5577 21.8649L21.6904 16.9294ZM26.2291 22.5196L21.3674 27.4551L16.5 22.5196H26.2291ZM16.5 11.3393H26.2291L21.3674 16.2748L16.5 11.3393ZM15.8484 22.5196L10.9867 27.4551L6.11935 22.5196H15.8484ZM11.3097 16.9294H21.0387L16.177 21.8649L11.3097 16.9294ZM39.1143 3.1704V8.2539H3.14454V3.1704H39.1143ZM0.169729 0.15332L0.164062 24.6885C0.164062 35.7549 19.2425 44.2824 21.0047 44.7492L21.4807 44.8744L21.934 44.6923C22.1323 44.6126 42.0891 35.92 42.0891 24.6885V0.15332H0.169729Z" fill="#122E2A"/>
</g>
<defs>
<clipPath id="clip0_1983_5228">
<rect width="188.852" height="45" fill="white"/>
</clipPath>
</defs>
</svg>
