<svg width="189" height="45" viewBox="0 0 189 45" fill="none" xmlns="http://www.w3.org/2000/svg">
<g clip-path="url(#clip0_1541_5550)">
<path d="M64.8336 41.7211L64.1933 40.4403H60.6349V38.1461H64.1084V36.871H60.6349V34.7192H64.1933L64.8336 33.4441H59.19V41.7211H64.8336ZM53.6937 41.7211V34.7192H55.6429L56.1925 33.4441H49.7556V34.7192H52.2488V41.7211H53.6937ZM79.5944 41.7211V33.4441H78.1495V36.8312H73.8601V33.4441H72.4208V41.7211H73.8601V38.1063H78.1495V41.7211H79.5944ZM89.0684 41.7268L88.4338 40.4517H84.8697V38.1518H88.3432V36.8767H84.8697V34.7249H88.4338L89.0684 33.4497H83.4248V41.7268H89.0684ZM98.8768 41.7211L96.8653 38.4706C97.8512 38.3112 98.8145 37.5143 98.8145 36.0399C98.8145 34.5143 97.7549 33.4497 96.123 33.4497H92.5022V41.7268H93.9471V38.6357H95.3807L97.2109 41.7268H98.8768V41.7211ZM95.9247 37.3549H93.9471V34.7249H95.9247C96.7406 34.7249 97.3356 35.2486 97.3356 36.0399C97.3356 36.8312 96.7406 37.3549 95.9247 37.3549ZM108.181 41.7268L107.546 40.4517H103.982V38.1518H107.456V36.8767H103.982V34.7249H107.546L108.181 33.4497H102.537V41.7268H108.181ZM119.242 41.7211V33.4441H117.797V39.1879L113.587 33.4441H112.102V41.7211H113.547V35.8122L117.848 41.7211H119.242ZM129.764 34.5997C129.101 33.8596 128.166 33.3074 126.817 33.3074C124.432 33.3074 122.494 34.9924 122.494 37.5883C122.494 40.1841 124.432 41.8805 126.817 41.8805C128.251 41.8805 129.401 41.2885 130.212 40.3833V37.2809H126.908V38.556H128.772V39.8482C128.404 40.1955 127.662 40.594 126.817 40.594C125.185 40.594 123.979 39.3302 123.979 37.5883C123.979 35.852 125.191 34.594 126.817 34.594C127.667 34.594 128.376 35.0095 128.818 35.5503L129.764 34.5997ZM141.561 41.7211L138.326 33.4441H136.524L133.288 41.7211H134.932L135.538 40.1329H139.317L139.924 41.7211H141.561ZM138.904 38.852H135.94L137.425 34.9071L138.904 38.852ZM155.982 41.7211L158.05 33.4441H156.43L155.121 39.649L153.415 33.4441H152.265L150.559 39.649L149.233 33.4441H147.618L149.698 41.7211H151.239L152.831 35.6129L154.441 41.7211H155.982ZM168.159 41.7211L164.923 33.4441H163.121L159.886 41.7211H161.529L162.135 40.1329H165.915L166.521 41.7211H168.159ZM165.507 38.852H162.543L164.028 34.9071L165.507 38.852ZM177.678 41.7211L174.086 37.3549L177.435 33.4441H175.644L172.42 37.389V33.4441H170.975V41.7211H172.42V39.074L173.134 38.2315L175.899 41.7211H177.678ZM188.201 41.7211L184.965 33.4441H183.163L179.928 41.7211H181.571L182.177 40.1329H185.957L186.563 41.7211H188.201ZM185.543 38.852H182.58L184.064 34.9071L185.543 38.852ZM188.591 27.9222V12.8824H185.384V22.3321L178.403 12.8824H175.106V27.9222H178.318V18.1139L185.498 27.9222H188.591ZM64.9753 27.8311L68.6471 12.7913H65.032L63.0318 23.3397L60.1873 12.7913H57.6771L54.8099 23.3397L52.7871 12.7913H49.2003L52.8891 27.8311H56.3002L58.9237 17.5048L61.5642 27.8311H64.9753ZM81.6683 27.945L80.433 25.1272H74.2114V21.723H80.2743V18.8994H74.2114V15.723H80.433L81.6683 12.9051H71.0042V27.945H81.6683ZM143.182 14.9829C141.992 13.6224 140.207 12.5636 137.629 12.5636C133.181 12.5636 129.537 15.6148 129.537 20.4137C129.537 25.1898 132.829 28.2866 137.272 28.2866C140.031 28.2866 142.553 27.148 144.1 25.4175V19.5939H137.464V22.4175H140.859V24.2391C140.241 24.8084 138.966 25.4004 137.623 25.4004C134.864 25.4004 132.858 23.2827 132.858 20.4194C132.858 17.5503 134.864 15.4383 137.623 15.4383C139.108 15.4383 140.303 16.2182 141.023 17.1689L143.182 14.9829ZM164.821 28.1955C169.383 28.1955 172.867 24.9507 172.867 20.4137C172.867 15.8824 169.547 12.6319 164.986 12.6319C160.447 12.6319 157.126 15.8767 157.126 20.4137C157.121 24.9507 160.283 28.1955 164.821 28.1955ZM164.98 25.3549C162.203 25.3549 160.419 23.2144 160.419 20.4194C160.419 17.6015 162.203 15.4839 164.98 15.4839C167.756 15.4839 169.564 17.6015 169.564 20.4194C169.57 23.2144 167.762 25.3549 164.98 25.3549ZM152.565 27.9222V15.7059H156.333L157.568 12.8824H144.933V15.7059H149.335V27.9222H152.565ZM107.206 12.8824H110.413V27.9222H107.206V12.8824ZM93.0859 27.9222V25.1044H87.3912V12.8824H84.1841V27.9222H93.0859ZM104.6 27.9222V25.1044H98.9052V12.8824H95.6924V27.9222H104.6ZM127.186 27.9222V12.8824H123.979V22.3321L116.998 12.8824H113.7V27.9222H116.913V18.1139L124.092 27.9222H127.186ZM77.2882 7.92979C79.1807 7.92979 80.5123 6.54648 80.5123 4.65085C80.5123 2.7609 79.1807 1.3719 77.2882 1.3719C75.3956 1.3719 74.0641 2.75521 74.0641 4.65085C74.0641 6.54648 75.3956 7.92979 77.2882 7.92979ZM77.2882 6.94497C76.0133 6.94497 75.1973 5.95445 75.1973 4.65654C75.1973 3.34724 76.0076 2.36811 77.2882 2.36811C78.5574 2.36811 79.3791 3.34724 79.3791 4.65654C79.3791 5.95445 78.5574 6.94497 77.2882 6.94497ZM53.0817 7.81594L55.3369 1.48006H54.079L52.3904 6.6091L50.7075 1.48006H49.4496L51.7048 7.81594H53.0817ZM99.5795 7.81594L97.1033 1.48006H95.7207L93.2445 7.81594H94.5024L94.9671 6.59772H97.8626L98.3272 7.81594H99.5795ZM97.5452 5.62428H95.2731L96.4063 2.60151L97.5452 5.62428ZM57.5921 1.48006H58.697V7.81594H57.5921V1.48006ZM65.6666 3.148L66.4089 2.39657C65.9272 1.82162 65.2246 1.3776 64.1877 1.3776C62.3235 1.3776 60.8786 2.70397 60.8786 4.65654C60.8786 6.60341 62.3235 7.93548 64.1877 7.93548C65.2246 7.93548 65.9216 7.49146 66.4089 6.9165L65.6666 6.17077C65.3436 6.62618 64.7996 6.95066 64.1877 6.95066C62.9411 6.95066 62.0118 5.9943 62.0118 4.66223C62.0118 3.33016 62.9411 2.3738 64.1877 2.3738C64.7996 2.36242 65.3436 2.69828 65.6666 3.148ZM71.0269 7.81594V2.45919H72.5228L72.9421 1.48006H68.0124V2.45919H69.922V7.81594H71.0269ZM87.5215 7.81594L85.9803 5.32827C86.7339 5.20303 87.4762 4.59961 87.4762 3.46678C87.4762 2.2998 86.6659 1.48006 85.4137 1.48006H82.6429V7.81594H83.7478V5.4535H84.847L86.2466 7.81594H87.5215ZM85.2663 4.47438H83.7534V2.45919H85.2663C85.8896 2.45919 86.343 2.85768 86.343 3.46678C86.343 4.07589 85.8896 4.47438 85.2663 4.47438ZM90.0317 1.48006H91.1366V7.81594H90.0317V1.48006ZM107.801 7.92979C109.626 7.92979 110.521 6.88804 110.521 5.31119V1.48006H109.405V5.27703C109.405 6.28462 108.844 6.93927 107.796 6.93927C106.736 6.93927 106.181 6.28462 106.181 5.27703V1.48006H105.064V5.31688C105.07 6.87666 105.965 7.92979 107.801 7.92979ZM118.652 7.81594V1.48006H117.547V5.88045L114.318 1.48006H113.19V7.81594H114.289V3.29601L117.581 7.81594H118.652ZM121.587 1.48006H122.692V7.81594H121.587V1.48006ZM128.772 7.81594L131.022 1.48006H129.764L128.081 6.6091L126.398 1.48006H125.14L127.39 7.81594H128.772ZM137.81 7.81594L137.323 6.83681H134.597V5.08348H137.255V4.10436H134.597V2.45919H137.323L137.81 1.48006H133.492V7.81594H137.81ZM145.358 7.81594L143.816 5.32827C144.57 5.20303 145.312 4.59961 145.312 3.46678C145.312 2.2998 144.502 1.48006 143.25 1.48006H140.479V7.81594H141.584V5.4535H142.683L144.083 7.81594H145.358ZM143.097 4.47438H141.584V2.45919H143.097C143.72 2.45919 144.173 2.85768 144.173 3.46678C144.173 4.07589 143.72 4.47438 143.097 4.47438ZM151.613 3.00568L152.35 2.25995C151.766 1.69638 150.973 1.38329 149.993 1.38329C148.61 1.38329 147.698 2.19164 147.698 3.23339C147.698 5.57305 151.375 4.74193 151.375 6.074C151.375 6.48956 151.018 6.93927 150.106 6.93927C149.296 6.93927 148.667 6.58633 148.23 6.17077L147.516 6.89943L147.499 6.9222C148.055 7.51992 148.899 7.92979 150.061 7.92979C151.76 7.92979 152.497 7.03036 152.497 5.97153C152.497 3.60341 148.831 4.33775 148.831 3.15938C148.831 2.6869 149.245 2.36811 149.902 2.36811C150.52 2.3738 151.137 2.57874 151.613 3.00568ZM155.098 1.48006H156.203V7.81594H155.098V1.48006ZM161.592 7.81594V2.45919H163.087L163.501 1.48006H158.577V2.45919H160.487V7.81594H161.592ZM168.329 7.81594V5.18595L170.544 1.48006H169.275L167.779 4.20113L166.266 1.48006H165.003L167.224 5.18595V7.81594H168.329ZM178.313 7.92979C180.205 7.92979 181.537 6.54648 181.537 4.65085C181.537 2.7609 180.205 1.3719 178.313 1.3719C176.42 1.3719 175.089 2.75521 175.089 4.65085C175.089 6.54648 176.42 7.92979 178.313 7.92979ZM178.313 6.94497C177.038 6.94497 176.222 5.95445 176.222 4.65654C176.222 3.34724 177.032 2.36811 178.313 2.36811C179.582 2.36811 180.404 3.34724 180.404 4.65654C180.404 5.95445 179.576 6.94497 178.313 6.94497ZM185.124 7.81594V5.08348H187.764V4.10436H185.124V2.45919H187.844L188.337 1.48006H184.019V7.81594H185.124ZM7.14495 31.9412C8.9865 31.9127 9.80812 30.5465 11.6497 30.5067C13.6272 30.4611 14.5338 31.9526 16.5057 31.9526C18.4832 31.9526 19.3842 30.5067 21.3617 30.5067C23.3393 30.5067 24.2402 31.9526 26.2177 31.9526C28.1953 31.9526 29.0962 30.4611 31.0738 30.5067C32.9153 30.5522 33.7256 31.9184 35.5672 31.9412C35.5728 31.9412 35.5785 31.9355 35.5842 31.9355C31.2041 36.7002 23.9852 40.5257 21.3391 41.6983C19.2255 40.8444 11.2644 36.8995 6.60099 31.833C6.78231 31.8786 6.95797 31.9412 7.14495 31.9412ZM36.6041 22.5199L31.7424 27.4554L26.875 22.5199H36.6041ZM21.6904 16.9298H31.4194L26.5577 21.8653L21.6904 16.9298ZM26.2291 22.5199L21.3674 27.4554L16.5 22.5199H26.2291ZM16.5 11.3397H26.2291L21.3674 16.2752L16.5 11.3397ZM15.8484 22.5199L10.9867 27.4554L6.11935 22.5199H15.8484ZM11.3097 16.9298H21.0387L16.177 21.8653L11.3097 16.9298ZM39.1143 3.17077V8.25427H3.14454V3.17077H39.1143ZM0.169729 0.153687L0.164062 24.6888C0.164062 35.7553 19.2425 44.2828 21.0047 44.7496L21.4807 44.8748L21.934 44.6926C22.1323 44.613 42.0891 35.9203 42.0891 24.6888V0.153687H0.169729Z" fill="#0F2424"/>
</g>
<defs>
<clipPath id="clip0_1541_5550">
<rect width="188.852" height="45" fill="white"/>
</clipPath>
</defs>
</svg>
