<svg width="127" height="25" viewBox="0 0 127 25" fill="none" xmlns="http://www.w3.org/2000/svg">
<path d="M0.707031 0.716797C1.37198 0.997539 1.80848 2.71478 1.80848 2.71478L5.93252 17.0592C6.40793 18.8544 7.91205 19.8001 9.59548 19.8001H18.6376C17.9901 19.6843 17.28 17.7765 17.28 17.7765L12.6949 3.50885C12.035 1.32951 10.9223 0.716797 9.23687 0.716797H0.707031ZM38.976 0.716797C37.2865 0.716797 36.1932 1.32951 35.5436 3.50885L30.9329 17.7765C30.9329 17.7765 30.23 19.6843 29.5753 19.8001H38.6174C40.309 19.8001 41.7988 18.8544 42.2804 17.0592L46.4044 2.71478C46.4044 2.71478 46.8542 0.997539 47.5315 0.716797H38.976ZM19.0987 0.819257V19.8001H29.1654V0.819257H19.0987Z" fill="#122E2A"/>
<path d="M78.5525 4.99414L74.5821 5.37837V7.47881H72.9684V9.57925H74.5821V16.0599C74.5821 17.0794 74.7748 17.8437 75.12 18.3652C75.4858 18.9021 76.0012 19.315 76.7082 19.6204C77.4141 19.938 78.4172 20.0814 79.7052 20.0814C80.2513 20.0814 80.989 19.9851 81.9337 19.7485V17.6992C81.4685 17.7904 81.0689 17.8529 80.7298 17.8529C80.0146 17.8529 79.4603 17.7044 79.0904 17.3919C78.7226 17.0845 78.5525 16.4851 78.5525 15.5988V9.57925H81.6775V7.47881H78.5525V4.99414ZM53.0654 7.19704C51.5439 7.19704 50.258 7.47881 49.2232 8.04234C48.1822 8.6028 47.4116 9.3692 46.8666 10.3477C46.3215 11.3272 46.0469 12.4051 46.0469 13.5496C46.0469 14.7914 46.3594 15.9595 46.9946 17.0076C47.633 18.065 48.5643 18.8325 49.7611 19.3386C50.9486 19.8417 52.3318 20.0814 53.9107 20.0814C55.588 20.0814 57.3431 19.8601 59.213 19.3898V17.0845C57.5634 17.5753 56.0716 17.8273 54.756 17.8273C53.7294 17.8273 52.9322 17.6726 52.3226 17.3919C51.715 17.1111 51.2181 16.7412 50.8625 16.2648C50.506 15.7884 50.2908 15.1265 50.1965 14.2924H59.2643C59.2295 11.5649 58.668 9.71347 57.5481 8.70833C56.4374 7.70729 54.9363 7.19704 53.0654 7.19704ZM66.8976 7.19704C64.8545 7.19704 63.335 7.54336 62.3381 8.24726C61.3401 8.9358 60.8524 9.82413 60.8524 10.8856C60.8524 11.7791 61.1578 12.485 61.8258 13.0373C62.4795 13.6059 63.5174 14.1346 64.8996 14.5998L66.2316 15.0353C66.9099 15.2535 67.4017 15.4994 67.7429 15.7269C68.0687 15.9718 68.2296 16.2679 68.2296 16.6234C68.2296 17.024 68.0042 17.3314 67.5636 17.5968C67.1261 17.8591 66.5257 18.0066 65.7961 18.0066C64.4078 18.0066 62.7418 17.6572 60.7756 16.982V19.4155C62.5809 19.8622 64.3514 20.0814 66.0779 20.0814C68.1046 20.0814 69.6466 19.686 70.7142 18.9032C71.7747 18.1234 72.3024 17.2269 72.3024 16.1879C72.3024 15.398 72.0093 14.7125 71.4315 14.1387C70.8413 13.5701 69.6117 12.9861 67.7173 12.3713L66.5646 11.9871C65.8771 11.774 65.4058 11.568 65.1558 11.3467C64.8873 11.1172 64.7459 10.8405 64.7459 10.5526C64.7459 10.1776 64.9477 9.88663 65.3607 9.65609C65.7664 9.42146 66.3853 9.29748 67.205 9.29748C68.2583 9.29748 69.581 9.5106 71.1753 9.93786V7.6325C69.5216 7.33844 68.0964 7.19704 66.8976 7.19704ZM92.5383 7.19704C91.4574 7.19704 90.5076 7.4245 89.7207 7.86303C88.9327 8.31181 88.2995 8.95116 87.7995 9.8354V7.47881H83.8292V24.2823H87.7995V18.5189C88.3333 18.9698 88.8077 19.3048 89.2084 19.4923C89.6172 19.688 90.0168 19.8489 90.4635 19.9534C90.901 20.0548 91.4041 20.0814 91.9236 20.0814C93.8816 20.0814 95.3908 19.4298 96.4831 18.1347C97.5722 16.8457 98.1224 15.2494 98.1224 13.3191C98.1224 11.4881 97.6388 10.0096 96.6624 8.88764C95.688 7.76467 94.3088 7.19704 92.5383 7.19704ZM105.551 7.19704C103.772 7.19704 101.991 7.4911 100.197 8.06796V10.3733C101.771 9.64175 103.324 9.27187 104.834 9.27187C105.599 9.27187 106.233 9.39994 106.729 9.65609C107.234 9.92044 107.472 10.4348 107.472 11.193V12.2945H106.422C103.774 12.2945 101.868 12.693 100.684 13.4984C99.5108 14.3139 98.9165 15.3365 98.9165 16.5466C98.9165 17.5374 99.312 18.3622 100.095 19.0568C100.886 19.7382 101.936 20.0814 103.245 20.0814C103.754 20.0814 104.225 20.0271 104.68 19.9278C105.13 19.8232 105.571 19.6972 105.986 19.4923C106.402 19.2853 106.918 18.9585 107.498 18.4933H107.651C107.93 19.1491 108.355 19.5691 108.881 19.7741C109.408 19.9841 110.039 20.0814 110.776 20.0814C111.423 20.0814 112.165 19.9923 113.005 19.7741L112.954 17.9042C112.733 17.9288 112.539 17.9298 112.39 17.9298C112.145 17.9298 111.896 17.8519 111.647 17.6992C111.402 17.5558 111.289 17.1685 111.289 16.4953V11.0393C111.289 10.0075 111.024 9.24932 110.52 8.73395C110.007 8.21652 109.325 7.83127 108.471 7.58127C107.614 7.33536 106.631 7.19704 105.551 7.19704ZM121.202 7.19704C118.647 7.19704 116.678 7.80053 115.361 8.9901C114.039 10.1797 113.389 11.733 113.389 13.6264C113.389 15.441 114.008 16.9851 115.259 18.2372C116.506 19.4718 118.382 20.0814 120.869 20.0814C122.269 20.0814 123.781 19.9144 125.403 19.5435V17.2382C124.17 17.6378 122.98 17.8529 121.816 17.8529C121.013 17.8529 120.283 17.6818 119.639 17.3662C118.998 17.0476 118.506 16.5486 118.153 15.855C117.791 15.1623 117.616 14.4072 117.616 13.6008C117.616 12.5639 117.918 11.5998 118.538 10.7319C119.158 9.86101 120.139 9.45117 121.483 9.45117C122.432 9.45117 123.708 9.66839 125.3 10.1172V7.68373C123.754 7.35278 122.39 7.19704 121.202 7.19704ZM52.9373 9.29748C53.6412 9.29748 54.215 9.53212 54.6536 10.0147C55.0972 10.4952 55.3196 11.2862 55.3196 12.3969H50.1453C50.2693 11.3795 50.5777 10.6213 51.0674 10.0915C51.5603 9.56285 52.1812 9.29748 52.9373 9.29748ZM91.0783 9.8354C91.985 9.8354 92.6674 10.1899 93.1531 10.86C93.6449 11.528 93.8959 12.4471 93.8959 13.6008C93.8959 14.731 93.6398 15.7177 93.1275 16.5978C92.6152 17.4708 91.8508 17.9042 90.7965 17.9042C90.3026 17.9042 89.8108 17.8109 89.3364 17.6224C88.858 17.4287 88.3467 17.0691 87.7995 16.5466V11.7053C88.2821 11.1264 88.7934 10.6766 89.3621 10.3477C89.9358 10.0127 90.5178 9.8354 91.0783 9.8354ZM106.55 14.2156H107.472V16.7003C106.989 17.0712 106.514 17.3345 106.037 17.5199C105.562 17.7136 105.089 17.8273 104.629 17.8273C104.116 17.8273 103.682 17.6665 103.297 17.3662C102.927 17.065 102.733 16.688 102.733 16.2136C102.733 15.6388 103.056 15.1592 103.681 14.7791C104.31 14.401 105.263 14.2156 106.55 14.2156Z" fill="#122E2A"/>
</svg>
