<svg width="155" height="31" viewBox="0 0 155 31" fill="none" xmlns="http://www.w3.org/2000/svg">
<path d="M0.869141 0.881348C1.68643 1.22641 2.22293 3.33707 2.22293 3.33707L7.29179 20.9679C7.87612 23.1742 9.72484 24.3366 11.7939 24.3366H22.9077C22.1118 24.1943 21.239 21.8494 21.239 21.8494L15.6035 4.31306C14.7924 1.63443 13.4248 0.881348 11.3532 0.881348H0.869141ZM47.9056 0.881348C45.829 0.881348 44.4853 1.63443 43.6868 4.31306L38.0198 21.8494C38.0198 21.8494 37.1558 24.1943 36.3511 24.3366H47.4649C49.544 24.3366 51.3751 23.1742 51.967 20.9679L57.0359 3.33707C57.0359 3.33707 57.5887 1.22641 58.4211 0.881348H47.9056ZM23.4744 1.00728V24.3366H35.8474V1.00728H23.4744Z" fill="#0F2424"/>
<path d="M96.5484 6.13916L91.6684 6.61141V9.19307H89.685V11.7747H91.6684V19.7401C91.6684 20.9931 91.9052 21.9326 92.3296 22.5736C92.7792 23.2335 93.4126 23.741 94.2816 24.1163C95.1493 24.5067 96.3822 24.683 97.9651 24.683C98.6364 24.683 99.5431 24.5646 100.704 24.2737V21.755C100.132 21.8671 99.6414 21.9439 99.2245 21.9439C98.3455 21.9439 97.6641 21.7613 97.2095 21.3772C96.7574 20.9994 96.5484 20.2627 96.5484 19.1734V11.7747H100.389V9.19307H96.5484V6.13916ZM65.2222 8.84675C63.3521 8.84675 61.7716 9.19307 60.4997 9.88571C59.2202 10.5746 58.2731 11.5166 57.6032 12.7192C56.9332 13.9232 56.5957 15.248 56.5957 16.6547C56.5957 18.181 56.9798 19.6167 57.7606 20.905C58.5452 22.2046 59.6899 23.1479 61.1608 23.77C62.6204 24.3883 64.3205 24.683 66.2612 24.683C68.3227 24.683 70.48 24.411 72.7783 23.8329V20.9994C70.7507 21.6026 68.9171 21.9124 67.3001 21.9124C66.0383 21.9124 65.0585 21.7223 64.3092 21.3772C63.5624 21.0322 62.9516 20.5775 62.5146 19.9919C62.0764 19.4063 61.8119 18.5928 61.696 17.5677H72.8412C72.7984 14.2153 72.1083 11.9397 70.7318 10.7043C69.3667 9.4739 67.5218 8.84675 65.2222 8.84675ZM82.2233 8.84675C79.7122 8.84675 77.8446 9.27241 76.6193 10.1376C75.3927 10.9839 74.7932 12.0757 74.7932 13.3804C74.7932 14.4785 75.1685 15.3462 75.9896 16.025C76.7931 16.7239 78.0688 17.3738 79.7676 17.9455L81.4048 18.4807C82.2385 18.749 82.8429 19.0512 83.2623 19.3308C83.6628 19.6318 83.8605 19.9957 83.8605 20.4327C83.8605 20.9251 83.5835 21.3029 83.0419 21.6291C82.5042 21.9515 81.7662 22.1328 80.8696 22.1328C79.1631 22.1328 77.1154 21.7034 74.6988 20.8735V23.8644C76.9177 24.4135 79.0939 24.683 81.2159 24.683C83.7069 24.683 85.6022 24.1969 86.9144 23.2347C88.2178 22.2764 88.8664 21.1745 88.8664 19.8975C88.8664 18.9265 88.5062 18.084 87.7959 17.3788C87.0706 16.6799 85.5593 15.962 83.2308 15.2064L81.8141 14.7342C80.969 14.4722 80.3898 14.2191 80.0825 13.9471C79.7525 13.665 79.5787 13.325 79.5787 12.9711C79.5787 12.5102 79.8268 12.1525 80.3343 11.8692C80.833 11.5808 81.5936 11.4284 82.6011 11.4284C83.8958 11.4284 85.5216 11.6903 87.4811 12.2155V9.38197C85.4485 9.02054 83.6968 8.84675 82.2233 8.84675ZM113.738 8.84675C112.41 8.84675 111.242 9.12632 110.275 9.66532C109.307 10.2169 108.529 11.0027 107.914 12.0896V9.19307H103.034V29.8463H107.914V22.7625C108.57 23.3166 109.153 23.7284 109.646 23.9589C110.148 24.1994 110.639 24.3971 111.188 24.5256C111.726 24.6502 112.344 24.683 112.983 24.683C115.389 24.683 117.244 23.882 118.587 22.2902C119.926 20.706 120.602 18.7439 120.602 16.3713C120.602 14.1209 120.007 12.3036 118.807 10.9247C117.61 9.54443 115.915 8.84675 113.738 8.84675ZM129.732 8.84675C127.546 8.84675 125.357 9.20818 123.152 9.91719V12.7507C125.086 11.8515 126.996 11.3969 128.851 11.3969C129.791 11.3969 130.571 11.5543 131.18 11.8692C131.801 12.1941 132.093 12.8263 132.093 13.7582V15.112H130.803C127.548 15.112 125.206 15.6019 123.75 16.5917C122.308 17.5941 121.578 18.851 121.578 20.3383C121.578 21.556 122.064 22.5698 123.026 23.4236C123.998 24.2611 125.289 24.683 126.899 24.683C127.523 24.683 128.102 24.6162 128.662 24.4941C129.214 24.3656 129.757 24.2107 130.267 23.9589C130.779 23.7045 131.412 23.3028 132.125 22.731H132.314C132.656 23.537 133.179 24.0533 133.825 24.3052C134.474 24.5634 135.248 24.683 136.155 24.683C136.949 24.683 137.861 24.5734 138.894 24.3052L138.831 22.0069C138.56 22.0371 138.321 22.0384 138.138 22.0384C137.837 22.0384 137.531 21.9427 137.225 21.755C136.924 21.5787 136.784 21.1027 136.784 20.2753V13.5693C136.784 12.3011 136.459 11.3692 135.84 10.7358C135.209 10.0998 134.372 9.62628 133.321 9.319C132.268 9.01676 131.059 8.84675 129.732 8.84675ZM148.969 8.84675C145.829 8.84675 143.409 9.5885 141.79 11.0506C140.164 12.5127 139.366 14.4219 139.366 16.7491C139.366 18.9794 140.127 20.8773 141.664 22.4162C143.197 23.9337 145.503 24.683 148.559 24.683C150.281 24.683 152.138 24.4777 154.132 24.0218V21.1883C152.617 21.6795 151.155 21.9439 149.724 21.9439C148.737 21.9439 147.839 21.7336 147.048 21.3457C146.26 20.9541 145.655 20.3408 145.222 19.4882C144.776 18.6369 144.561 17.7087 144.561 16.7176C144.561 15.4432 144.932 14.2581 145.694 13.1915C146.456 12.121 147.663 11.6173 149.315 11.6173C150.481 11.6173 152.049 11.8843 154.006 12.4359V9.44494C152.106 9.03817 150.429 8.84675 148.969 8.84675ZM65.0648 11.4284C65.9299 11.4284 66.6352 11.7168 67.1742 12.3099C67.7195 12.9006 67.9928 13.8728 67.9928 15.2379H61.6331C61.7854 13.9874 62.1645 13.0555 62.7665 12.4044C63.3722 11.7546 64.1354 11.4284 65.0648 11.4284ZM111.944 12.0896C113.058 12.0896 113.897 12.5253 114.494 13.3489C115.098 14.17 115.407 15.2996 115.407 16.7176C115.407 18.1067 115.092 19.3194 114.463 20.4012C113.833 21.4742 112.893 22.0069 111.598 22.0069C110.991 22.0069 110.386 21.8923 109.803 21.6606C109.215 21.4226 108.586 20.9805 107.914 20.3383V14.3879C108.507 13.6763 109.136 13.1235 109.834 12.7192C110.54 12.3074 111.255 12.0896 111.944 12.0896ZM130.96 17.4733H132.093V20.5272C131.5 20.983 130.916 21.3067 130.33 21.5346C129.746 21.7726 129.164 21.9124 128.599 21.9124C127.969 21.9124 127.435 21.7147 126.962 21.3457C126.507 20.9755 126.269 20.512 126.269 19.929C126.269 19.2225 126.666 18.6331 127.434 18.1659C128.207 17.7012 129.378 17.4733 130.96 17.4733Z" fill="#0F2424"/>
</svg>
