<svg width="203" height="78" viewBox="0 0 203 78" fill="none" xmlns="http://www.w3.org/2000/svg">
<path d="M0 0C1.04402 0.440783 1.72935 3.13696 1.72935 3.13696L8.20435 25.6587C8.95077 28.4771 11.3123 29.962 13.9554 29.962H28.1522C27.1355 29.7802 26.0207 26.7848 26.0207 26.7848L18.8217 4.3837C17.7857 0.962 16.0387 0 13.3924 0H0ZM60.0848 0C57.4321 0 55.7156 0.962 54.6957 4.3837L47.4565 26.7848C47.4565 26.7848 46.3529 29.7802 45.325 29.962H59.5217C62.1777 29.962 64.5167 28.4771 65.2728 25.6587L71.7478 3.13696C71.7478 3.13696 72.454 0.440783 73.5174 0H60.0848ZM28.8761 0.16087V29.962H44.6815V0.16087H28.8761Z" fill="#122E2A"/>
<path d="M122.221 6.71631L115.988 7.31957V10.6174H113.454V13.9152H115.988V24.0902C115.988 25.6909 116.29 26.891 116.832 27.7098C117.407 28.5527 118.216 29.201 119.326 29.6804C120.434 30.1791 122.009 30.4044 124.031 30.4044C124.889 30.4044 126.047 30.2531 127.53 29.8815V26.6641C126.8 26.8073 126.172 26.9054 125.64 26.9054C124.517 26.9054 123.647 26.6722 123.066 26.1815C122.488 25.6989 122.221 24.7578 122.221 23.3663V13.9152H127.128V10.6174H122.221V6.71631ZM82.2051 10.175C79.8162 10.175 77.7973 10.6174 76.1725 11.5022C74.5381 12.3821 73.3283 13.5854 72.4725 15.1217C71.6167 16.6597 71.1855 18.352 71.1855 20.1489C71.1856 22.0987 71.6762 23.9326 72.6736 25.5783C73.6758 27.2384 75.1381 28.4434 77.0171 29.238C78.8816 30.0279 81.0533 30.4044 83.5323 30.4044C86.1657 30.4044 88.9214 30.0569 91.8573 29.3185V25.6989C89.2673 26.4695 86.925 26.8652 84.8595 26.8652C83.2476 26.8652 81.996 26.6223 81.0388 26.1815C80.0849 25.7407 79.3046 25.16 78.7464 24.412C78.1866 23.6639 77.8488 22.6247 77.7008 21.3152H91.9377C91.8831 17.0329 91.0015 14.126 89.2432 12.5478C87.4993 10.9761 85.1426 10.175 82.2051 10.175ZM103.923 10.175C100.715 10.175 98.329 10.7187 96.7638 11.8239C95.1969 12.905 94.4312 14.2997 94.4312 15.9663C94.4312 17.3691 94.9106 18.4775 95.9595 19.3446C96.9858 20.2374 98.6154 21.0675 100.786 21.7978L102.877 22.4815C103.942 22.8242 104.714 23.2103 105.25 23.5674C105.761 23.9519 106.014 24.4168 106.014 24.975C106.014 25.604 105.66 26.0866 104.968 26.5033C104.281 26.9151 103.339 27.1467 102.193 27.1467C100.013 27.1467 97.3976 26.5982 94.3106 25.538V29.3587C97.1451 30.0601 99.9249 30.4044 102.636 30.4044C105.818 30.4044 108.239 29.7834 109.915 28.5544C111.58 27.3301 112.408 25.9225 112.408 24.2913C112.408 23.051 111.948 21.9748 111.041 21.0739C110.114 20.1811 108.184 19.2641 105.209 18.2989L103.4 17.6957C102.32 17.361 101.58 17.0377 101.188 16.6902C100.766 16.3299 100.544 15.8955 100.544 15.4435C100.544 14.8547 100.861 14.3978 101.509 14.0359C102.147 13.6675 103.118 13.4728 104.405 13.4728C106.059 13.4728 108.136 13.8074 110.639 14.4783V10.8587C108.042 10.397 105.805 10.175 103.923 10.175ZM144.18 10.175C142.483 10.175 140.992 10.5321 139.756 11.2207C138.519 11.9253 137.525 12.9291 136.74 14.3174V10.6174H130.506V37H136.74V27.9511C137.578 28.6589 138.323 29.185 138.952 29.4794C139.594 29.7866 140.221 30.0392 140.923 30.2033C141.609 30.3625 142.399 30.4044 143.215 30.4044C146.289 30.4044 148.659 29.3812 150.374 27.3478C152.084 25.3241 152.948 22.8177 152.948 19.787C152.947 16.9122 152.188 14.5909 150.655 12.8294C149.125 11.0662 146.96 10.175 144.18 10.175ZM164.611 10.175C161.818 10.175 159.022 10.6367 156.205 11.5424V15.162C158.676 14.0134 161.115 13.4326 163.484 13.4326C164.686 13.4326 165.682 13.6337 166.461 14.0359C167.254 14.4509 167.627 15.2585 167.627 16.4489V18.1783H165.978C161.821 18.1783 158.829 18.804 156.969 20.0685C155.127 21.349 154.194 22.9545 154.194 24.8544C154.194 26.41 154.815 27.705 156.044 28.7957C157.286 29.8654 158.935 30.4044 160.991 30.4044C161.789 30.4044 162.529 30.3191 163.243 30.163C163.949 29.999 164.643 29.8011 165.294 29.4794C165.947 29.1544 166.757 28.6412 167.667 27.9109H167.908C168.346 28.9404 169.014 29.6 169.839 29.9217C170.667 30.2515 171.657 30.4044 172.815 30.4044C173.83 30.4044 174.995 30.2644 176.314 29.9217L176.233 26.9859C175.888 27.0245 175.582 27.0261 175.349 27.0261C174.964 27.0261 174.573 26.9038 174.182 26.6641C173.798 26.4389 173.619 25.8308 173.619 24.7739V16.2076C173.619 14.5877 173.204 13.3972 172.413 12.588C171.607 11.7757 170.537 11.1708 169.195 10.7783C167.85 10.3922 166.306 10.175 164.611 10.175ZM189.183 10.175C185.173 10.175 182.081 11.1225 180.014 12.9902C177.937 14.8579 176.917 17.2967 176.917 20.2696C176.917 23.1186 177.889 25.5429 179.853 27.5087C181.811 29.4472 184.756 30.4044 188.661 30.4044C190.86 30.4044 193.233 30.1421 195.779 29.5598V25.9402C193.844 26.5676 191.976 26.9054 190.149 26.9054C188.887 26.9054 187.74 26.6368 186.73 26.1413C185.723 25.641 184.951 24.8576 184.398 23.7685C183.828 22.681 183.553 21.4954 183.553 20.2294C183.553 18.6014 184.027 17.0876 185.001 15.725C185.974 14.3576 187.515 13.7141 189.626 13.7141C191.115 13.7141 193.118 14.0552 195.618 14.7598V10.9391C193.191 10.4195 191.049 10.175 189.183 10.175ZM82.004 13.4728C83.1092 13.4728 84.0101 13.8412 84.6986 14.5989C85.3951 15.3534 85.7442 16.5953 85.7442 18.3391H77.6203C77.815 16.7417 78.2992 15.5513 79.0682 14.7196C79.8419 13.8895 80.8168 13.4728 82.004 13.4728ZM141.888 14.3174C143.311 14.3174 144.383 14.874 145.145 15.9261C145.918 16.975 146.312 18.418 146.312 20.2294C146.312 22.0037 145.909 23.5529 145.105 24.9348C144.301 26.3054 143.101 26.9859 141.445 26.9859C140.67 26.9859 139.898 26.8395 139.153 26.5435C138.402 26.2394 137.599 25.6748 136.74 24.8544V17.2533C137.498 16.3444 138.3 15.6381 139.193 15.1217C140.094 14.5957 141.008 14.3174 141.888 14.3174ZM166.179 21.1946H167.627V25.0957C166.869 25.678 166.123 26.0914 165.375 26.3826C164.628 26.6867 163.885 26.8652 163.163 26.8652C162.358 26.8652 161.676 26.6127 161.071 26.1413C160.491 25.6684 160.187 25.0764 160.187 24.3315C160.187 23.429 160.693 22.6762 161.675 22.0794C162.662 21.4857 164.159 21.1946 166.179 21.1946Z" fill="#122E2A"/>
</svg>
