<svg width="203" height="78" viewBox="0 0 203 78" fill="none" xmlns="http://www.w3.org/2000/svg">
<path d="M0 20C1.04402 20.4408 1.72935 23.137 1.72935 23.137L8.20435 45.6587C8.95077 48.4771 11.3123 49.962 13.9554 49.962H28.1522C27.1355 49.7802 26.0207 46.7848 26.0207 46.7848L18.8217 24.3837C17.7857 20.962 16.0387 20 13.3924 20H0ZM60.0848 20C57.4321 20 55.7156 20.962 54.6957 24.3837L47.4565 46.7848C47.4565 46.7848 46.3529 49.7802 45.325 49.962H59.5217C62.1777 49.962 64.5167 48.4771 65.2728 45.6587L71.7478 23.137C71.7478 23.137 72.454 20.4408 73.5174 20H60.0848ZM28.8761 20.1609V49.962H44.6815V20.1609H28.8761Z" fill="#122E2A"/>
<path d="M122.221 26.7163L115.988 27.3196V30.6174H113.454V33.9152H115.988V44.0902C115.988 45.6909 116.29 46.891 116.832 47.7098C117.407 48.5527 118.216 49.201 119.326 49.6804C120.434 50.1791 122.009 50.4044 124.031 50.4044C124.889 50.4044 126.047 50.2531 127.53 49.8815V46.6641C126.8 46.8073 126.172 46.9054 125.64 46.9054C124.517 46.9054 123.647 46.6722 123.066 46.1815C122.488 45.6989 122.221 44.7578 122.221 43.3663V33.9152H127.128V30.6174H122.221V26.7163ZM82.2051 30.175C79.8162 30.175 77.7973 30.6174 76.1725 31.5022C74.5381 32.3821 73.3283 33.5854 72.4725 35.1217C71.6167 36.6597 71.1855 38.352 71.1855 40.1489C71.1856 42.0987 71.6762 43.9326 72.6736 45.5783C73.6758 47.2384 75.1381 48.4434 77.0171 49.238C78.8816 50.0279 81.0533 50.4044 83.5323 50.4044C86.1657 50.4044 88.9214 50.0569 91.8573 49.3185V45.6989C89.2673 46.4695 86.925 46.8652 84.8595 46.8652C83.2476 46.8652 81.996 46.6223 81.0388 46.1815C80.0849 45.7407 79.3046 45.16 78.7464 44.412C78.1866 43.6639 77.8488 42.6247 77.7008 41.3152H91.9377C91.8831 37.0329 91.0015 34.126 89.2432 32.5478C87.4993 30.9761 85.1426 30.175 82.2051 30.175ZM103.923 30.175C100.715 30.175 98.329 30.7187 96.7638 31.8239C95.1969 32.905 94.4312 34.2997 94.4312 35.9663C94.4312 37.3691 94.9106 38.4775 95.9595 39.3446C96.9858 40.2374 98.6154 41.0675 100.786 41.7978L102.877 42.4815C103.942 42.8242 104.714 43.2103 105.25 43.5674C105.761 43.9519 106.014 44.4168 106.014 44.975C106.014 45.604 105.66 46.0866 104.968 46.5033C104.281 46.9151 103.339 47.1467 102.193 47.1467C100.013 47.1467 97.3976 46.5982 94.3106 45.538V49.3587C97.1451 50.0601 99.9249 50.4044 102.636 50.4044C105.818 50.4044 108.239 49.7834 109.915 48.5544C111.58 47.3301 112.408 45.9225 112.408 44.2913C112.408 43.051 111.948 41.9748 111.041 41.0739C110.114 40.1811 108.184 39.2641 105.209 38.2989L103.4 37.6957C102.32 37.361 101.58 37.0377 101.188 36.6902C100.766 36.3299 100.544 35.8955 100.544 35.4435C100.544 34.8547 100.861 34.3978 101.509 34.0359C102.147 33.6675 103.118 33.4728 104.405 33.4728C106.059 33.4728 108.136 33.8074 110.639 34.4783V30.8587C108.042 30.397 105.805 30.175 103.923 30.175ZM144.18 30.175C142.483 30.175 140.992 30.5321 139.756 31.2207C138.519 31.9253 137.525 32.9291 136.74 34.3174V30.6174H130.506V57H136.74V47.9511C137.578 48.6589 138.323 49.185 138.952 49.4794C139.594 49.7866 140.221 50.0392 140.923 50.2033C141.609 50.3625 142.399 50.4044 143.215 50.4044C146.289 50.4044 148.659 49.3812 150.374 47.3478C152.084 45.3241 152.948 42.8177 152.948 39.787C152.947 36.9122 152.188 34.5909 150.655 32.8294C149.125 31.0662 146.96 30.175 144.18 30.175ZM164.611 30.175C161.818 30.175 159.022 30.6367 156.205 31.5424V35.162C158.676 34.0134 161.115 33.4326 163.484 33.4326C164.686 33.4326 165.682 33.6337 166.461 34.0359C167.254 34.4509 167.627 35.2585 167.627 36.4489V38.1783H165.978C161.821 38.1783 158.829 38.804 156.969 40.0685C155.127 41.349 154.194 42.9545 154.194 44.8544C154.194 46.41 154.815 47.705 156.044 48.7957C157.286 49.8654 158.935 50.4044 160.991 50.4044C161.789 50.4044 162.529 50.3191 163.243 50.163C163.949 49.999 164.643 49.8011 165.294 49.4794C165.947 49.1544 166.757 48.6412 167.667 47.9109H167.908C168.346 48.9404 169.014 49.6 169.839 49.9217C170.667 50.2515 171.657 50.4044 172.815 50.4044C173.83 50.4044 174.995 50.2644 176.314 49.9217L176.233 46.9859C175.888 47.0245 175.582 47.0261 175.349 47.0261C174.964 47.0261 174.573 46.9038 174.182 46.6641C173.798 46.4389 173.619 45.8308 173.619 44.7739V36.2076C173.619 34.5877 173.204 33.3972 172.413 32.588C171.607 31.7757 170.537 31.1708 169.195 30.7783C167.85 30.3922 166.306 30.175 164.611 30.175ZM189.183 30.175C185.173 30.175 182.081 31.1225 180.014 32.9902C177.937 34.8579 176.917 37.2967 176.917 40.2696C176.917 43.1186 177.889 45.5429 179.853 47.5087C181.811 49.4472 184.756 50.4044 188.661 50.4044C190.86 50.4044 193.233 50.1421 195.779 49.5598V45.9402C193.844 46.5676 191.976 46.9054 190.149 46.9054C188.887 46.9054 187.74 46.6368 186.73 46.1413C185.723 45.641 184.951 44.8576 184.398 43.7685C183.828 42.681 183.553 41.4954 183.553 40.2294C183.553 38.6014 184.027 37.0876 185.001 35.725C185.974 34.3576 187.515 33.7141 189.626 33.7141C191.115 33.7141 193.118 34.0552 195.618 34.7598V30.9391C193.191 30.4195 191.049 30.175 189.183 30.175ZM82.004 33.4728C83.1092 33.4728 84.0101 33.8412 84.6986 34.5989C85.3951 35.3534 85.7442 36.5953 85.7442 38.3391H77.6203C77.815 36.7417 78.2992 35.5513 79.0682 34.7196C79.8419 33.8895 80.8168 33.4728 82.004 33.4728ZM141.888 34.3174C143.311 34.3174 144.383 34.874 145.145 35.9261C145.918 36.975 146.312 38.418 146.312 40.2294C146.312 42.0037 145.909 43.5529 145.105 44.9348C144.301 46.3054 143.101 46.9859 141.445 46.9859C140.67 46.9859 139.898 46.8395 139.153 46.5435C138.402 46.2394 137.599 45.6748 136.74 44.8544V37.2533C137.498 36.3444 138.3 35.6381 139.193 35.1217C140.094 34.5957 141.008 34.3174 141.888 34.3174ZM166.179 41.1946H167.627V45.0957C166.869 45.678 166.123 46.0914 165.375 46.3826C164.628 46.6867 163.885 46.8652 163.163 46.8652C162.358 46.8652 161.676 46.6127 161.071 46.1413C160.491 45.6684 160.187 45.0764 160.187 44.3315C160.187 43.429 160.693 42.6762 161.675 42.0794C162.662 41.4857 164.159 41.1946 166.179 41.1946Z" fill="#122E2A"/>
</svg>
